<?xml version="1.0" encoding="UTF-8"?>
<svg id="Layer_1" xmlns="http://www.w3.org/2000/svg" version="1.1" xmlns:xlink="http://www.w3.org/1999/xlink" viewBox="0 0 283.46 283.46">
  <!-- Generator: Adobe Illustrator 29.6.1, SVG Export Plug-In . SVG Version: 2.1.1 Build 9)  -->
  <defs>
    <style>
      .st0 {
        fill: url(#linear-gradient);
      }
    </style>
    <linearGradient id="linear-gradient" x1="84.08" y1="141.73" x2="199.38" y2="141.73" gradientUnits="userSpaceOnUse">
      <stop offset="0" stop-color="#2f5495"/>
      <stop offset="1" stop-color="#203462"/>
    </linearGradient>
  </defs>
  <path class="st0" d="M193.08,219.65v-8.61c-3.14-.14-6.28-.28-9.42-.42v-6.42c3.14.25,6.28.5,9.42.74v-10.21c-3.14-.27-6.28-.54-9.42-.8v-6.44c3.14.37,6.28.74,9.42,1.11v-10.19c-3.14-.4-6.28-.81-9.42-1.21v-6.46l9.42,1.49v-10.17c-3.14-.53-6.28-1.07-9.42-1.59v-6.48c3.14.62,6.28,1.24,9.42,1.86v-10.15c-3.14-.66-6.28-1.33-9.42-1.99v-6.5l9.42,2.23v-10.13c-3.14-.8-6.28-1.59-9.42-2.39v-6.51c3.14.87,6.28,1.74,9.42,2.6v-10.11l-9.42-2.78v-6.53l9.42,2.98v-14.65l-27.39-10.76v-29.35l-23.48-12.72v180.57h-1.95V70.62l-23.48,12.72v29.35l-27.39,10.76v96.2h-5.31v24.74h115.3v-24.74h-6.3ZM96.55,135.14l18.14-5.74.07,4.79-18.15,5.36-.07-4.41ZM96.72,146.74c6.05-1.68,12.11-3.34,18.16-5.02l.07,4.79c-6.05,1.53-12.1,3.07-18.16,4.6l-.07-4.37ZM96.9,158.34l18.16-4.31.07,4.79c-6.05,1.28-12.11,2.56-18.17,3.84l-.06-4.32ZM97.07,169.94c6.06-1.2,12.11-2.39,18.17-3.58l.07,4.79c-6.06,1.02-12.12,2.05-18.19,3.08l-.06-4.28ZM97.24,181.55l18.19-2.87.07,4.79c-6.06.78-12.13,1.55-18.19,2.33l-.07-4.24ZM97.42,193.15c6.07-.72,12.13-1.43,18.2-2.15l.07,4.79c-6.07.52-12.14,1.04-18.21,1.56l-.06-4.19ZM97.65,208.91l-.06-4.16c6.07-.48,12.14-.96,18.2-1.44l.07,4.78c-6.07.27-12.15.54-18.22.81ZM149.93,171.09l7.87,1.98-.05,11.78-7.87-1.99.05-11.78ZM157.76,209.87l-7.88-1.99.05-11.78,7.88,1.98-.05,11.78ZM157.87,158.28l-7.88-1.99.06-11.8,7.88,1.98-.06,11.8ZM158,131.68l-7.87-1.98.05-11.77,7.88,1.98-.06,11.78ZM158.11,105.11l-7.87-1.98.05-11.8,7.88,1.99-.06,11.8ZM158.23,78.52l-7.88-1.99.05-11.77,7.88,1.98-.05,11.78Z"/>
</svg>