<?xml version="1.0" encoding="UTF-8"?>
<svg id="Layer_1" xmlns="http://www.w3.org/2000/svg" version="1.1" xmlns:xlink="http://www.w3.org/1999/xlink" viewBox="0 0 283.46 283.46">
  <!-- Generator: Adobe Illustrator 29.6.1, SVG Export Plug-In . SVG Version: 2.1.1 Build 9)  -->
  <defs>
    <style>
      .st0 {
        fill: url(#linear-gradient2);
      }

      .st1 {
        fill: url(#linear-gradient1);
      }

      .st2 {
        fill: url(#linear-gradient7);
      }

      .st3 {
        fill: url(#linear-gradient4);
      }

      .st4 {
        fill: url(#linear-gradient5);
      }

      .st5 {
        fill: url(#linear-gradient3);
      }

      .st6 {
        fill: url(#linear-gradient6);
      }

      .st7 {
        fill: url(#linear-gradient);
      }
    </style>
    <linearGradient id="linear-gradient" x1="101.78" y1="141.54" x2="173.56" y2="141.54" gradientUnits="userSpaceOnUse">
      <stop offset="0" stop-color="#2f5495"/>
      <stop offset="1" stop-color="#203462"/>
    </linearGradient>
    <linearGradient id="linear-gradient1" x1="110.46" y1="128.78" x2="181.89" y2="128.78" xlink:href="#linear-gradient"/>
    <linearGradient id="linear-gradient2" x1="185.16" y1="137.87" x2="201.76" y2="137.87" xlink:href="#linear-gradient"/>
    <linearGradient id="linear-gradient3" x1="81.79" y1="137.83" x2="98.2" y2="137.83" xlink:href="#linear-gradient"/>
    <linearGradient id="linear-gradient4" x1="174.4" y1="154.54" x2="237.13" y2="154.54" xlink:href="#linear-gradient"/>
    <linearGradient id="linear-gradient5" x1="53.06" y1="205.63" x2="155.28" y2="205.63" xlink:href="#linear-gradient"/>
    <linearGradient id="linear-gradient6" x1="46.33" y1="101.12" x2="129.66" y2="101.12" xlink:href="#linear-gradient"/>
    <linearGradient id="linear-gradient7" x1="149.56" y1="57.92" x2="197.64" y2="57.92" xlink:href="#linear-gradient"/>
  </defs>
  <path class="st7" d="M172.94,161.39c1.7-3.2-.43-5.2-2.29-7.35-9.07-10.48-18.19-20.91-27.07-31.54-2.23-2.66-3.95-2.8-6.51-.81-2.62,2.04-5.3,4.08-8.18,5.69-6.05,3.39-12.3,4.1-18.34-.01-4.68-3.19-5.02-6.95-1.03-10.65,2.91-2.7,6.06-5.15,9.46-8.02-3.67-.83-6.27.65-8.55,2.39-2.37,1.81-4.59,3.77-7.48,4.72-1.24.11-1.16,1.03-1.15,1.88.08,11.31.16,22.61.25,33.92,5.34,2.17,9.46,6.12,13.92,9.59,4.98,3.87,10,7.71,15.13,11.36,3.63,2.59,6.68,3.28,10.16-1.3,2.02-2.65,7.03,3.12,10.18-.95.71-.92,1.09-2.1,1.64-3.18,2.23.93,4.33,2.3,6.95,1.84,3.36-.59,2.79-3.77,3.52-5.89.97.15,1.49.23,2.01.32,2.78.45,5.66,1.26,7.4-2.02"/>
  <path class="st1" d="M111.97,118.96c-2.25,1.8-1.84,3.58.24,5.14,3.87,2.9,8.07,3.05,12.43,1.25,4.26-1.76,7.88-4.56,11.49-7.33,3.24-2.48,5.53-2.24,8.33,1.08,9.82,11.66,19.99,23.04,29.96,34.58,1.36,1.57,2.41,2.55,4.83,1.73,2.46-.84,2.6-2.26,2.57-4.32-.08-5.44-.03-10.88-.03-16.32s-.22-10.54.08-15.78c.18-3.12-.95-4.22-3.85-4.84-8.23-1.78-15.94-4.76-23.44-8.83-7.05-3.83-15.31-4.91-22.8-1.06-7.31,3.76-13.38,9.55-19.82,14.69"/>
  <path class="st0" d="M195.98,169.51c4.35.14,5.83-1.24,5.78-5.64-.21-15.25.06-30.51-.12-45.76-.17-14.09,2.73-11.51-12.35-11.89-3.36-.08-4.17,1.4-4.13,4.43.12,8.94.04,17.88.04,26.82,0,7.02-.07,14.03.01,21.04.15,12.59-1.85,10.59,10.76,10.99"/>
  <path class="st5" d="M84.11,169.36c4.44-.22,9,1.22,13.31-.87,1.33-7.08.56-14.23.53-21.34-.05-13.24.65-26.48-.4-39.71-4.52-2.52-9.37-.88-14.07-.97-1.77-.04-1.68,1.9-1.68,3.31,0,18.73,0,37.47,0,56.21,0,1.72.26,3.48,2.32,3.37"/>
  <path class="st3" d="M176.64,230.26l-2.24-5.69c34.4-13.55,56.62-46.14,56.62-83.03,0-21.54-7.86-42.38-22.13-58.69l4.6-4.02c15.24,17.42,23.64,39.7,23.64,62.72,0,39.42-23.75,74.25-60.49,88.72Z"/>
  <path class="st4" d="M141.73,236.94c-39.37,0-74.18-23.7-88.68-60.38l5.69-2.25c13.57,34.33,46.14,56.51,82.99,56.51,3.82,0,7.85-.32,12.69-1.01l.86,6.05c-5.13.73-9.44,1.07-13.55,1.07Z"/>
  <path class="st6" d="M47.41,155.13c-.73-5.13-1.08-9.44-1.08-13.59,0-47.46,35.47-88.05,82.51-94.42l.82,6.06c-44.02,5.96-77.21,43.95-77.21,88.37,0,3.85.32,7.89,1.01,12.72l-6.05.87Z"/>
  <path class="st2" d="M194.05,69.3c-13.09-9.5-28.47-15.27-44.48-16.68l.54-6.09c17.11,1.51,33.55,7.67,47.54,17.82l-3.59,4.95Z"/>
</svg>