<svg xmlns="http://www.w3.org/2000/svg" id="Layer_1" data-name="Layer 1" viewBox="0 0 908 279">
  <defs>
    <style>
      .cls-1 {
        fill: #1A3D84;
      }
    </style>
  </defs>
  <path class="cls-1" d="M907.41,207.72h-93.4l-31.17,31.87c.22.13.42.28.6.47.19.19.34.4.46.62l30.72-31.42h92.78v-1.54Z"/>
  <path class="cls-1" d="M781.44,239.21c-.73,0-1.45.28-2.01.85-1.11,1.13-1.11,2.97,0,4.1.55.57,1.28.85,2.01.85s1.45-.28,2.01-.85c.92-.94,1.08-2.38.46-3.49-.12-.22-.28-.43-.46-.62-.19-.19-.39-.35-.61-.47-.43-.25-.92-.38-1.4-.38"/>
  <path class="cls-1" d="M656.05,214.56l-17.12,17.51h-145.48c.07.25.1.51.1.78s-.04.52-.1.77h146.1l17.57-17.96c-.22-.13-.42-.28-.61-.47-.19-.19-.34-.4-.46-.62"/>
  <path class="cls-1" d="M658.51,210.22c-.72,0-1.45.28-2.01.85-.92.94-1.08,2.38-.46,3.48.12.22.28.43.46.62.19.19.39.35.61.47.43.25.92.38,1.4.38.73,0,1.45-.29,2.01-.85,1.11-1.13,1.11-2.97,0-4.1-.55-.57-1.28-.85-2.01-.85"/>
  <path class="cls-1" d="M490.71,229.94c-1.57,0-2.84,1.3-2.84,2.9s1.27,2.9,2.84,2.9c1.31,0,2.4-.9,2.74-2.13.07-.24.1-.5.1-.77s-.04-.53-.1-.77c-.33-1.23-1.43-2.13-2.74-2.13"/>
  <path class="cls-1" d="M761.08,91.44c-.73,0-1.45.28-2.01.85-1.11,1.13-1.11,2.97,0,4.1.56.57,1.28.85,2.01.85.48,0,.97-.13,1.4-.38.22-.13.42-.28.6-.47.19-.19.34-.4.46-.62.62-1.11.46-2.54-.46-3.48-.55-.57-1.28-.85-2-.85"/>
  <path class="cls-1" d="M751.96,156.92h-101.14l-41.39,42.33.63,1.54,41.39-42.33h99.89l25.4,25.98c.12-.22.28-.43.46-.62.19-.19.39-.35.61-.47l-25.84-26.43Z"/>
  <path class="cls-1" d="M779.2,182.97c-.48,0-.97.13-1.4.38-.22.13-.42.28-.61.47-.18.19-.34.4-.46.62-.62,1.11-.46,2.54.46,3.49.56.57,1.28.85,2.01.85s1.45-.28,2.01-.85c1.11-1.13,1.11-2.97,0-4.1-.55-.57-1.28-.85-2.01-.85"/>
  <path class="cls-1" d="M749,191.39h-95.82l-12.54,12.82c.21.13.42.28.6.47.19.19.34.4.46.62l12.1-12.37h94.57l11.8,12.07c.12-.22.28-.43.46-.62.18-.19.39-.35.61-.47l-12.25-12.52Z"/>
  <path class="cls-1" d="M762.65,203.53c-.48,0-.97.13-1.4.38-.22.13-.42.28-.61.47-.19.19-.34.4-.46.62-.62,1.11-.46,2.54.46,3.48.55.57,1.28.85,2.01.85s1.45-.28,2-.85c1.11-1.13,1.11-2.97,0-4.1-.55-.57-1.28-.85-2-.85"/>
  <path class="cls-1" d="M639.25,203.83c-.73,0-1.45.28-2,.85-1.11,1.13-1.11,2.97,0,4.11.55.57,1.28.85,2,.85s1.45-.28,2.01-.85c.92-.95,1.08-2.38.46-3.49-.12-.22-.28-.43-.46-.62-.19-.19-.39-.35-.6-.47-.43-.25-.92-.38-1.4-.38"/>
  <path class="cls-1" d="M415.54,126.99h-106.49c.07.25.1.5.1.77s-.03.53-.1.77h105.86l51.44,52.61h139.87l29.09-29.76c-.22-.13-.42-.28-.6-.47-.19-.19-.34-.4-.46-.62l-28.65,29.3h-138.62l-51.44-52.61Z"/>
  <path class="cls-1" d="M636.71,145.96c-.73,0-1.45.28-2,.85-.93.95-1.08,2.38-.46,3.49.12.22.28.43.46.62.19.19.39.35.6.47.43.25.92.38,1.4.38.72,0,1.45-.28,2-.85,1.11-1.13,1.11-2.97,0-4.1-.55-.57-1.28-.85-2-.85"/>
  <path class="cls-1" d="M306.31,124.86c-1.57,0-2.84,1.3-2.84,2.9s1.27,2.9,2.84,2.9c1.3,0,2.4-.9,2.73-2.13.07-.25.1-.5.1-.77s-.03-.53-.1-.77c-.33-1.23-1.43-2.13-2.73-2.13"/>
  <path class="cls-1" d="M761.08,94.34h-125.95l27.06,27.67c.12-.22.28-.43.46-.62.19-.19.39-.35.6-.47l-24.48-25.04h122.31v-1.54Z"/>
  <path class="cls-1" d="M664.65,120.54c-.48,0-.97.13-1.4.38-.22.13-.42.28-.6.47-.18.19-.34.4-.46.62-.62,1.11-.46,2.54.46,3.49.55.57,1.28.85,2.01.85s1.45-.28,2.01-.85c1.11-1.13,1.11-2.97,0-4.1-.56-.57-1.28-.85-2.01-.85"/>
  <path class="cls-1" d="M620.85,96.61h-46.92l43.55,44.54-21.64,22.13h-123.54l-49.05-50.17c-.12.22-.28.43-.46.62-.19.19-.39.35-.6.47l49.49,50.62h124.79l23.15-23.67-42.04-42.99h42.65l21.12,21.6c.12-.22.28-.43.46-.62.19-.19.39-.35.6-.47l-21.55-22.05Z"/>
  <path class="cls-1" d="M643.81,118.28c-.49,0-.97.13-1.4.38-.22.13-.42.28-.61.47-.18.19-.34.4-.46.62-.61,1.11-.46,2.54.46,3.48.55.57,1.28.85,2.01.85s1.45-.28,2.01-.85c1.11-1.13,1.11-2.97,0-4.1-.56-.57-1.28-.85-2.01-.85"/>
  <path class="cls-1" d="M420.78,108.77c-.72,0-1.45.28-2.01.85-1.11,1.13-1.11,2.97,0,4.1.56.57,1.28.85,2.01.85.48,0,.97-.13,1.4-.38.22-.12.42-.28.6-.47.19-.19.34-.4.46-.62.61-1.11.46-2.54-.46-3.48-.55-.57-1.28-.85-2.01-.85"/>
  <path class="cls-1" d="M889.68,54.43h-73l-57.65,58.96h-79.26c.07.25.1.5.1.77s-.04.53-.1.77h79.88l57.65-58.96h72.38v-1.55Z"/>
  <path class="cls-1" d="M677.03,111.26c-1.57,0-2.84,1.3-2.84,2.9s1.27,2.9,2.84,2.9c1.31,0,2.41-.9,2.74-2.13.07-.25.1-.5.1-.77s-.04-.53-.1-.77c-.33-1.23-1.43-2.13-2.74-2.13"/>
  <path class="cls-1" d="M767.8,138.05c-.12.22-.28.43-.46.62-.19.19-.39.35-.6.47l33.08,33.84h104.94v-1.54h-104.31l-32.64-33.39Z"/>
  <path class="cls-1" d="M765.33,133.72c-.73,0-1.45.28-2.01.85-1.11,1.13-1.11,2.97,0,4.1.56.57,1.28.85,2.01.85.48,0,.97-.13,1.4-.38.22-.13.42-.28.61-.47.19-.19.34-.4.46-.62.61-1.11.46-2.54-.46-3.48-.55-.57-1.28-.85-2.01-.85"/>
  <polygon class="cls-1" points="545.38 81.1 544.31 82.19 577.92 116.56 470.52 116.56 444.58 90.03 346.08 90.03 346.08 91.57 443.96 91.57 469.9 118.11 581.56 118.11 545.38 81.1"/>
  <path class="cls-1" d="M545.38,78.19c-.73,0-1.45.28-2.01.85-.92.94-1.08,2.38-.46,3.48.12.22.28.43.46.62.18.19.39.35.61.47.43.25.92.38,1.4.38.73,0,1.45-.28,2.01-.85,1.11-1.13,1.11-2.97,0-4.1-.55-.57-1.28-.85-2.01-.85"/>
  <path class="cls-1" d="M193.98,57.84c-.73,0-1.45.28-2.01.85-1.11,1.13-1.11,2.97,0,4.1.55.57,1.28.85,2.01.85.48,0,.97-.13,1.4-.38.22-.13.42-.29.6-.47.19-.19.34-.4.46-.62.61-1.11.46-2.54-.46-3.48-.55-.57-1.28-.85-2.01-.85"/>
  <path class="cls-1" d="M13.27,105c-.73,0-1.45.28-2.01.85-1.11,1.13-1.11,2.97,0,4.1.55.57,1.28.85,2.01.85.48,0,.97-.13,1.4-.38.22-.13.42-.29.6-.47.19-.19.34-.4.46-.62.61-1.11.46-2.54-.46-3.48-.55-.57-1.28-.85-2.01-.85"/>
  <path class="cls-1" d="M35.89,164.82c-.73,0-1.45.28-2.01.85-1.11,1.13-1.11,2.97,0,4.1.55.57,1.28.85,2.01.85.48,0,.97-.13,1.4-.38.22-.13.42-.29.6-.47.19-.19.34-.4.46-.62.61-1.11.46-2.54-.46-3.48-.55-.57-1.28-.85-2.01-.85"/>
  <path class="cls-1" d="M254.98,199.55h-100.99c.08.25.12.51.12.77s-.04.53-.12.77h100.25l.74-1.55Z"/>
  <path class="cls-1" d="M574.96,193.2h-29.51l-14.71,12.7h-205l.74,1.54h205l14.72-12.7h28.77c-.08-.25-.12-.5-.12-.77s.04-.53.12-.77"/>
  <path class="cls-1" d="M578.2,191.08c-1.55,0-2.85.9-3.24,2.13-.08.25-.12.5-.12.77s.04.53.12.77c.39,1.23,1.69,2.13,3.24,2.13,1.86,0,3.36-1.3,3.36-2.9s-1.5-2.9-3.36-2.9"/>
  <path class="cls-1" d="M793.35,126.08h-55.93c.07.25.1.51.1.77s-.04.53-.1.77h55.31l23.06,23.58h90.74v-1.55h-90.12l-23.06-23.58Z"/>
  <path class="cls-1" d="M734.68,123.96c-1.57,0-2.84,1.3-2.84,2.9s1.27,2.9,2.84,2.9c1.31,0,2.41-.9,2.74-2.13.07-.24.1-.5.1-.77s-.04-.53-.1-.77c-.33-1.23-1.43-2.13-2.73-2.13"/>
  <path class="cls-1" d="M825.45,99.96c-.12.22-.28.43-.46.62-.19.19-.39.35-.6.47l15.35,15.7h65.9v-1.54h-65.28l-14.91-15.25Z"/>
  <path class="cls-1" d="M822.98,95.62c-.73,0-1.45.28-2.01.85-1.11,1.13-1.11,2.97,0,4.1.56.57,1.28.85,2.01.85.48,0,.97-.13,1.4-.38.22-.13.42-.28.61-.47.18-.19.34-.4.46-.62.61-1.11.46-2.54-.46-3.48-.55-.57-1.28-.85-2.01-.85"/>
  <path class="cls-1" d="M809.31,109.76h-28.44c.07.25.1.5.1.77s-.04.53-.1.78h27.81l23.06,23.58h60.37c-.07-.25-.1-.5-.1-.77s.03-.52.1-.77h-59.75l-23.06-23.58Z"/>
  <path class="cls-1" d="M894.86,131.21c-1.31,0-2.41.9-2.74,2.13-.07.24-.1.5-.1.77s.04.53.1.77c.33,1.23,1.43,2.13,2.74,2.13,1.57,0,2.83-1.3,2.83-2.9s-1.27-2.9-2.83-2.9"/>
  <path class="cls-1" d="M778.14,107.63c-1.57,0-2.83,1.3-2.83,2.9s1.27,2.9,2.83,2.9c1.31,0,2.41-.9,2.74-2.13.07-.25.1-.5.1-.77s-.04-.53-.1-.77c-.33-1.23-1.43-2.13-2.74-2.13"/>
  <path class="cls-1" d="M415.09,162.82h-111.37c.07.25.1.5.1.77s-.04.53-.1.77h110.74l29.09,29.75h-54.69c.07.25.1.5.1.77s-.04.53-.1.77h58.33l-32.1-32.84Z"/>
  <path class="cls-1" d="M386.13,191.98c-1.57,0-2.84,1.3-2.84,2.9s1.27,2.9,2.84,2.9c1.31,0,2.4-.9,2.73-2.13.07-.24.1-.5.1-.77s-.03-.53-.1-.77c-.33-1.23-1.43-2.13-2.73-2.13"/>
  <path class="cls-1" d="M300.99,160.69c-1.57,0-2.84,1.3-2.84,2.9s1.27,2.9,2.84,2.9c1.3,0,2.4-.9,2.73-2.13.07-.24.1-.5.1-.77s-.04-.53-.1-.77c-.33-1.23-1.43-2.13-2.73-2.13"/>
  <path class="cls-1" d="M126.63,133.12h-57.04c.07.25.1.5.1.77s-.03.53-.1.78h56.42l35.26,36.05h90.64l28.82-29.48h126.2l23.33,23.86c.12-.22.28-.43.46-.62.18-.19.39-.35.6-.47l-23.77-24.31h-127.45l-28.82,29.48h-89.39l-35.26-36.05Z"/>
  <path class="cls-1" d="M432.73,163.63c-.48,0-.97.13-1.4.38-.22.13-.42.28-.6.47-.19.19-.34.4-.46.62-.62,1.11-.46,2.54.46,3.48.55.57,1.28.85,2,.85s1.45-.28,2.01-.85c1.11-1.14,1.11-2.97,0-4.11-.55-.57-1.28-.85-2.01-.85"/>
  <path class="cls-1" d="M66.85,130.99c-1.57,0-2.84,1.3-2.84,2.9s1.27,2.9,2.84,2.9c1.3,0,2.4-.9,2.73-2.13.07-.25.1-.5.1-.77s-.03-.53-.1-.77c-.33-1.23-1.43-2.13-2.73-2.13"/>
  <path class="cls-1" d="M245.69,60.32h-51.27v1.55h50.65l45.67,46.71h101.17c-.07-.25-.1-.5-.1-.77s.04-.53.1-.77h-100.54l-45.68-46.71Z"/>
  <path class="cls-1" d="M394.64,104.91c-1.3,0-2.4.9-2.73,2.13-.07.24-.1.5-.1.77s.04.53.1.77c.33,1.23,1.43,2.13,2.73,2.13,1.57,0,2.84-1.3,2.84-2.9s-1.27-2.9-2.84-2.9"/>
  <path class="cls-1" d="M112.22,166.9H35.89c.07.25.1.5.1.77s-.04.53-.1.77h75.71l23.06,23.58h141.64l9.75-9.98h99.66c-.07-.25-.1-.51-.1-.77s.03-.53.1-.77h-100.28l-9.75,9.98h-140.39l-23.06-23.58Z"/>
  <path class="cls-1" d="M388.44,178.38c-1.31,0-2.4.9-2.73,2.13-.07.24-.1.5-.1.77s.03.53.1.77c.33,1.23,1.43,2.13,2.73,2.13,1.57,0,2.84-1.3,2.84-2.9s-1.27-2.9-2.84-2.9"/>
  <path class="cls-1" d="M239.4,83.82l-1.07,1.09,35.7,36.5-28.52,29.16h-69.44l-42.12-43.08H13.71c.07.25.1.5.1.77s-.03.53-.1.77h119.61l42.12,43.08h70.69l30.02-30.7-36.76-37.6Z"/>
  <path class="cls-1" d="M239.46,81.55c-.73,0-1.45.28-2.01.85-1.11,1.13-1.11,2.97,0,4.1.55.57,1.28.85,2.01.85.48,0,.97-.13,1.4-.38.22-.13.42-.29.6-.47.19-.19.34-.4.46-.62.61-1.11.46-2.54-.46-3.48-.55-.57-1.28-.85-2.01-.85"/>
  <path class="cls-1" d="M348.14,87.36c-.73,0-1.45.28-2.01.85-1.11,1.13-1.11,2.97,0,4.1.55.57,1.28.85,2.01.85.48,0,.97-.13,1.4-.38.22-.13.42-.29.6-.47.19-.19.34-.4.46-.62.61-1.11.46-2.54-.46-3.48-.55-.57-1.28-.85-2.01-.85"/>
  <path class="cls-1" d="M328.57,203.23c-.73,0-1.45.28-2.01.85-1.11,1.13-1.11,2.97,0,4.1.55.57,1.28.85,2.01.85.48,0,.97-.13,1.4-.38.22-.13.42-.29.6-.47.19-.19.34-.4.46-.62.61-1.11.46-2.54-.46-3.48-.55-.57-1.28-.85-2.01-.85"/>
  <path class="cls-1" d="M154.14,197.06c-.73,0-1.45.28-2.01.85-1.11,1.13-1.11,2.97,0,4.1.55.57,1.28.85,2.01.85.48,0,.97-.13,1.4-.38.22-.13.42-.29.6-.47.19-.19.34-.4.46-.62.61-1.11.46-2.54-.46-3.48-.55-.57-1.28-.85-2.01-.85"/>
  <path class="cls-1" d="M609.43,195.44c-.73,0-1.45.28-2.01.85-1.11,1.13-1.11,2.97,0,4.1.55.57,1.28.85,2.01.85.48,0,.97-.13,1.4-.38.22-.13.42-.29.6-.47.19-.19.34-.4.46-.62.61-1.11.46-2.54-.46-3.48-.55-.57-1.28-.85-2.01-.85"/>
  <path class="cls-1" d="M254.98,197.06c-.73,0-1.45.28-2.01.85-1.11,1.13-1.11,2.97,0,4.1.55.57,1.28.85,2.01.85.48,0,.97-.13,1.4-.38.22-.13.42-.29.6-.47.19-.19.34-.4.46-.62.61-1.11.46-2.54-.46-3.48-.55-.57-1.28-.85-2.01-.85"/>
</svg>