<?xml version="1.0" encoding="UTF-8"?>
<svg id="Layer_1" xmlns="http://www.w3.org/2000/svg" version="1.1" xmlns:xlink="http://www.w3.org/1999/xlink" viewBox="0 0 283.46 283.46">
  <!-- Generator: Adobe Illustrator 29.6.1, SVG Export Plug-In . SVG Version: 2.1.1 Build 9)  -->
  <defs>
    <style>
      .st0 {
        fill: url(#linear-gradient1);
      }

      .st1 {
        fill: url(#linear-gradient);
      }
    </style>
    <linearGradient id="linear-gradient" x1="78.69" y1="113.87" x2="205.12" y2="113.87" gradientUnits="userSpaceOnUse">
      <stop offset="0" stop-color="#2f5495"/>
      <stop offset="1" stop-color="#203462"/>
    </linearGradient>
    <linearGradient id="linear-gradient1" x1="67.93" y1="149.36" x2="215.54" y2="149.36" xlink:href="#linear-gradient"/>
  </defs>
  <path class="st1" d="M78.96,82.96l51.28,58.19c2.92,3.32,7.12,5.21,11.53,5.21s8.6-1.9,11.52-5.21l50.4-57.17c.42-.48.9-.85,1.43-1.14-2.13-.93-4.49-1.46-6.97-1.46h-112.76c-2.38,0-4.64.48-6.7,1.33.09.1.18.16.26.25"/>
  <path class="st0" d="M212.86,96.64c-.23.59-.55,1.16-.99,1.66l-50.39,57.18c-4.99,5.66-12.18,8.91-19.74,8.91s-14.74-3.25-19.72-8.91l-51.29-58.19c-.1-.11-.18-.25-.27-.37-1.58,2.63-2.51,5.69-2.51,8.97v78.76c0,9.62,7.8,17.42,17.43,17.42h112.75c9.62,0,17.43-7.8,17.43-17.42v-78.76c0-3.41-.99-6.57-2.68-9.25"/>
</svg>