<?xml version="1.0" encoding="UTF-8"?>
<svg id="Layer_1" xmlns="http://www.w3.org/2000/svg" version="1.1" xmlns:xlink="http://www.w3.org/1999/xlink" viewBox="0 0 283.46 283.46">
  <!-- Generator: Adobe Illustrator 29.6.1, SVG Export Plug-In . SVG Version: 2.1.1 Build 9)  -->
  <defs>
    <style>
      .st0 {
        fill: url(#linear-gradient2);
      }

      .st1 {
        fill: url(#linear-gradient1);
      }

      .st2 {
        fill: url(#linear-gradient4);
      }

      .st3 {
        fill: url(#linear-gradient5);
      }

      .st4 {
        fill: url(#linear-gradient3);
      }

      .st5 {
        fill: url(#linear-gradient6);
      }

      .st6 {
        fill: url(#linear-gradient);
      }
    </style>
    <linearGradient id="linear-gradient" x1="20.52" y1="196.36" x2="138.07" y2="196.36" gradientUnits="userSpaceOnUse">
      <stop offset="0" stop-color="#2f5495"/>
      <stop offset="1" stop-color="#203462"/>
    </linearGradient>
    <linearGradient id="linear-gradient1" x1="145.9" y1="196.29" x2="262.95" y2="196.29" xlink:href="#linear-gradient"/>
    <linearGradient id="linear-gradient2" x1="28.61" y1="179.6" x2="138.04" y2="179.6" xlink:href="#linear-gradient"/>
    <linearGradient id="linear-gradient3" x1="145.6" y1="179.71" x2="254.87" y2="179.71" xlink:href="#linear-gradient"/>
    <linearGradient id="linear-gradient4" x1="39.83" y1="162.99" x2="138.52" y2="162.99" xlink:href="#linear-gradient"/>
    <linearGradient id="linear-gradient5" x1="145.01" y1="162.94" x2="243.6" y2="162.94" xlink:href="#linear-gradient"/>
    <linearGradient id="linear-gradient6" x1="76.11" y1="124.86" x2="207.28" y2="124.86" xlink:href="#linear-gradient"/>
  </defs>
  <g>
    <path class="st6" d="M138.07,210.07c-3.65-1.97-6.78-3.72-9.97-5.36-13.45-6.9-27.62-11.34-42.71-12.93-12.28-1.29-24.5-.98-36.68.78-9.35,1.35-18.64,3.12-28.2,4.75.15-2.26.24-4.76.55-7.23.06-.46.97-1.03,1.58-1.17,7.57-1.74,15.1-3.75,22.75-5,10.42-1.71,20.96-1.52,31.45-.41,15.39,1.64,30.22,5.36,43.96,12.73,6.43,3.45,12.2,7.75,17.27,13.83Z"/>
    <path class="st1" d="M145.9,209.83c3.61-4.73,8.07-8.42,13.06-11.46,12.15-7.39,25.48-11.47,39.41-13.74,12.3-2.01,24.67-2.44,37.06-1.15,8.67.91,17.15,2.76,25.46,5.42,1.02.33,1.61.84,1.63,2.06.04,2.19.26,4.38.42,6.72-3.51-.76-6.79-1.49-10.08-2.16-17.5-3.56-35.13-5.59-53.01-3.98-18.94,1.7-36.38,7.96-52.68,17.6-.42.25-.85.46-1.27.69Z"/>
    <path class="st0" d="M28.61,178.32c.16-2.35.22-4.55.53-6.71.08-.54.91-1.18,1.53-1.39,6.73-2.23,13.65-3.63,20.71-4.3,15.35-1.44,30.45-.01,45.28,4.15,10.93,3.06,21.36,7.3,30.6,13.99,3.8,2.75,7.19,6.06,10.77,9.12-.16.21-.31.42-.47.64-1.62-.92-3.25-1.84-4.87-2.76-10.96-6.27-22.46-11.29-34.74-14.34-10.63-2.64-21.46-3.78-32.41-3.45-11.9.36-23.62,2.16-35.22,4.78-.49.11-.99.16-1.72.28Z"/>
    <path class="st4" d="M254.87,178.64c-38.65-10.07-75.11-6.57-108.93,15.42-.11-.19-.22-.39-.33-.58,1.66-1.7,3.21-3.51,4.98-5.08,8.29-7.31,17.97-12.21,28.31-15.86,15.55-5.5,31.59-7.81,48.05-7.04,8.78.42,17.39,1.93,25.77,4.66,1.11.36,1.7.89,1.71,2.18.01,1.93.26,3.86.44,6.29Z"/>
    <path class="st2" d="M138.52,178.2c-5.51-3.1-10.58-6.08-15.76-8.83-11.92-6.32-24.4-11.11-37.81-13.14-9.61-1.46-19.27-1.59-28.91-.32-5.38.71-10.74,1.66-16.2,2.52.09-1.8.11-3.79.36-5.75.06-.49.83-1.09,1.39-1.27,8.53-2.8,17.32-3.87,26.27-3.58,18.72.61,36.11,5.84,52.28,15.19,6.82,3.94,13.05,8.67,18.38,15.19Z"/>
    <path class="st3" d="M145.01,177.67c2.64-2.5,5.14-5.18,7.96-7.47,10.67-8.67,22.9-14.31,36.04-18.13,11.05-3.21,22.29-4.73,33.8-4.16,6.45.32,12.73,1.51,18.91,3.36,1.23.37,1.67.95,1.66,2.18,0,1.67.14,3.35.22,5.15-3.57-.67-7.08-1.43-10.63-1.98-14.7-2.28-29.3-2.14-43.83,1.53-14.04,3.55-26.79,9.92-39.17,17.2-1.54.9-3.07,1.82-4.61,2.73-.12-.14-.24-.27-.36-.41Z"/>
  </g>
  <path class="st5" d="M141.66,176.33c-3.26-3.55-6.65-7.25-10.05-10.95-.23.26-.45.52-.68.78h6.88v-22.45h-25.17c.34,3.94.67,7.83,1.03,11.97-2.45-1.06-4.91-2.09-7.32-3.21-.28-.13-.43-.75-.48-1.16-.27-2.51-.49-5.02-.74-7.64h-20.57c.36.92.66,1.67,1.03,2.64-3.09-.47-6.01-.92-8.94-1.37-2.51-15.42,3.35-40.73,24.09-57.24,21.08-16.78,50.49-19.04,73.97-5.41,23.69,13.76,34.66,39.27,32.25,62.57-3.01.5-6.04,1-9.23,1.52.41-.91.75-1.66,1.17-2.58-.48-.1-.82-.23-1.16-.23-5.98-.01-11.95.02-17.93-.03-1.23-.01-1.72.31-1.76,1.61-.06,2.07-.28,4.14-.53,6.2-.06.48-.41,1.14-.81,1.33-2.28,1.06-4.61,2.01-6.99,3.01.36-3.98.71-7.88,1.08-11.96h-25.2v22.46h6.88c-.21-.25-.42-.49-.64-.74-3.43,3.67-6.86,7.34-10.19,10.9ZM145.6,111.27v24.71h25.44c-.59-5.24-1.05-10.32-1.76-15.36-.85-6.06-.91-6.2-6.98-7.21-5.48-.91-11.02-1.43-16.71-2.14ZM137.86,111.55c-7.39.34-14.46,1.11-21.4,2.82-.56.14-1.21.97-1.35,1.59-.57,2.39-1.07,4.81-1.36,7.25-.5,4.22-.82,8.46-1.23,12.77h25.35v-24.44ZM196.08,118.98c-2.22-11.94-23.82-33.89-33.12-33.71.86,1.22,1.74,2.39,2.54,3.61,3.64,5.56,6.26,11.6,8.15,17.95.37,1.26,1.08,1.79,2.28,2.28,4.85,1.98,9.67,4.04,14.4,6.26,2.01.94,3.79,2.36,5.75,3.61ZM120.72,85.04c-12.52,2.88-32.48,23.39-33.23,34,6.29-4.77,13.33-7.82,20.68-10.23.63-.21,1.27-1.07,1.49-1.76,2.45-7.82,5.73-15.23,11.05-22.01ZM117.95,106.24c.52-.03.83-.03,1.14-.06,5.6-.65,11.19-1.4,16.8-1.89,1.73-.15,2.16-.7,2.14-2.31-.08-6.03-.06-12.07-.07-18.11,0-.75,0-1.49,0-2.28-8.43,1.66-16.76,13.77-20.01,24.65ZM165.65,106.1c-.98-2.32-1.81-4.54-2.84-6.68-2.74-5.7-6.02-11.04-11.23-14.86-1.76-1.29-3.79-2.19-5.98-3.43v22.75c6.71.74,13.23,1.47,20.04,2.22ZM107.01,117.42c-8.45,2.07-21.97,10.66-22.8,18.5h20.87c.26-3.22.44-6.26.76-9.28.32-3.07.78-6.12,1.18-9.23ZM199.34,135.99c-1.47-8.63-15.88-17.13-22.77-18.44.64,6.1,1.28,12.2,1.94,18.44h20.84Z"/>
</svg>