<?xml version="1.0" encoding="UTF-8"?>
<svg id="Layer_1" xmlns="http://www.w3.org/2000/svg" version="1.1" xmlns:xlink="http://www.w3.org/1999/xlink" viewBox="0 0 283.46 283.46">
  <!-- Generator: Adobe Illustrator 29.6.1, SVG Export Plug-In . SVG Version: 2.1.1 Build 9)  -->
  <defs>
    <style>
      .st0 {
        fill: url(#linear-gradient2);
      }

      .st1 {
        fill: url(#linear-gradient1);
      }

      .st2 {
        fill: url(#linear-gradient4);
      }

      .st3 {
        fill: url(#linear-gradient5);
      }

      .st4 {
        fill: url(#linear-gradient3);
      }

      .st5 {
        fill: url(#linear-gradient);
      }
    </style>
    <linearGradient id="linear-gradient" x1="113.71" y1="178.52" x2="169.76" y2="178.52" gradientUnits="userSpaceOnUse">
      <stop offset="0" stop-color="#2f5495"/>
      <stop offset="1" stop-color="#203462"/>
    </linearGradient>
    <linearGradient id="linear-gradient1" x1="113.71" y1="104.93" x2="169.76" y2="104.93" xlink:href="#linear-gradient"/>
    <linearGradient id="linear-gradient2" x1="163.46" y1="102.66" x2="221.77" y2="102.66" xlink:href="#linear-gradient"/>
    <linearGradient id="linear-gradient3" x1="163.46" y1="180.8" x2="221.77" y2="180.8" xlink:href="#linear-gradient"/>
    <linearGradient id="linear-gradient4" x1="61.69" y1="180.8" x2="120" y2="180.8" xlink:href="#linear-gradient"/>
    <linearGradient id="linear-gradient5" x1="61.69" y1="102.66" x2="120" y2="102.66" xlink:href="#linear-gradient"/>
  </defs>
  <path class="st5" d="M113.71,146.28c1.27,38.27,15.34,64.48,28.02,64.48s26.77-26.21,28.03-64.48h-56.06Z"/>
  <path class="st1" d="M141.73,72.7c-12.68,0-26.75,26.2-28.01,64.47h56.05c-1.27-38.27-15.34-64.47-28.03-64.47"/>
  <path class="st0" d="M185.56,136.72h36.21c-2.46-33.39-26.54-60.74-58.31-68.11,12.61,11.99,21.17,37.17,22.1,68.11"/>
  <path class="st4" d="M185.56,146.74c-.93,30.94-9.49,56.12-22.1,68.12,31.77-7.37,55.85-34.73,58.31-68.12h-36.21Z"/>
  <path class="st2" d="M97.91,146.74h-36.22c2.45,33.38,26.53,60.74,58.31,68.12-12.6-12-21.17-37.18-22.08-68.12"/>
  <path class="st3" d="M97.91,136.72c.92-30.93,9.48-56.12,22.08-68.11-31.77,7.37-55.85,34.72-58.31,68.11h36.22Z"/>
</svg>