<?xml version="1.0" encoding="UTF-8"?>
<svg id="Layer_1" xmlns="http://www.w3.org/2000/svg" version="1.1" xmlns:xlink="http://www.w3.org/1999/xlink" viewBox="0 0 283.46 283.46">
  <!-- Generator: Adobe Illustrator 29.6.1, SVG Export Plug-In . SVG Version: 2.1.1 Build 9)  -->
  <defs>
    <style>
      .st0 {
        fill: url(#linear-gradient2);
      }

      .st1 {
        fill: url(#linear-gradient10);
      }

      .st2 {
        fill: url(#linear-gradient1);
      }

      .st3 {
        fill: url(#linear-gradient9);
      }

      .st4 {
        fill: url(#linear-gradient8);
      }

      .st5 {
        fill: url(#linear-gradient11);
      }

      .st6 {
        fill: url(#linear-gradient12);
      }

      .st7 {
        fill: url(#linear-gradient7);
      }

      .st8 {
        fill: url(#linear-gradient4);
      }

      .st9 {
        fill: url(#linear-gradient14);
      }

      .st10 {
        fill: url(#linear-gradient5);
      }

      .st11 {
        fill: url(#linear-gradient3);
      }

      .st12 {
        fill: url(#linear-gradient6);
      }

      .st13 {
        fill: url(#linear-gradient13);
      }

      .st14 {
        fill: url(#linear-gradient);
      }
    </style>
    <linearGradient id="linear-gradient" x1="71.83" y1="142.84" x2="207.01" y2="142.84" gradientUnits="userSpaceOnUse">
      <stop offset="0" stop-color="#2f5495"/>
      <stop offset="1" stop-color="#203462"/>
    </linearGradient>
    <linearGradient id="linear-gradient1" x1="121.91" y1="149.49" x2="237.08" y2="149.49" xlink:href="#linear-gradient"/>
    <linearGradient id="linear-gradient2" x1="46.38" y1="131.65" x2="161.12" y2="131.65" xlink:href="#linear-gradient"/>
    <linearGradient id="linear-gradient3" x1="133.15" y1="203.97" x2="147.88" y2="203.97" xlink:href="#linear-gradient"/>
    <linearGradient id="linear-gradient4" x1="115.7" y1="142.36" x2="165.43" y2="142.36" xlink:href="#linear-gradient"/>
    <linearGradient id="linear-gradient5" x1="130.7" y1="138.89" x2="150.97" y2="138.89" xlink:href="#linear-gradient"/>
    <linearGradient id="linear-gradient6" x1="129.41" y1="179.03" x2="151.81" y2="179.03" xlink:href="#linear-gradient"/>
    <linearGradient id="linear-gradient7" x1="116.59" y1="105.32" x2="125.81" y2="105.32" xlink:href="#linear-gradient"/>
    <linearGradient id="linear-gradient8" x1="155.37" y1="105.31" x2="164.63" y2="105.31" xlink:href="#linear-gradient"/>
    <linearGradient id="linear-gradient9" x1="95.02" y1="138.95" x2="108.55" y2="138.95" xlink:href="#linear-gradient"/>
    <linearGradient id="linear-gradient10" x1="172.88" y1="138.98" x2="186.01" y2="138.98" xlink:href="#linear-gradient"/>
    <linearGradient id="linear-gradient11" x1="138.21" y1="100.14" x2="143.01" y2="100.14" xlink:href="#linear-gradient"/>
    <linearGradient id="linear-gradient12" x1="100.9" y1="119.43" x2="113.26" y2="119.43" xlink:href="#linear-gradient"/>
    <linearGradient id="linear-gradient13" x1="168.09" y1="119.41" x2="179.98" y2="119.41" xlink:href="#linear-gradient"/>
    <linearGradient id="linear-gradient14" x1="134.02" y1="189.77" x2="147.07" y2="189.77" xlink:href="#linear-gradient"/>
  </defs>
  <path class="st14" d="M147.88,202.95c18.74-3.93,34.26-12.63,44.27-29.63,12.17-20.68,11.21-47.5-4.01-66.69-15.68-19.77-36.57-27.2-61.57-21.82-1.35.29-2.66.83-3.98,1.23-2.35.72-4.66.73-5.43-2.07-.78-2.84,1.37-3.78,3.64-4.54,12.23-4.12,24.57-4.39,36.93-.89,32.94,9.34,51.85,37.54,49.01,72.9-2.37,29.51-28.94,55.77-60.82,57.95-48.96,3.36-82.37-42.59-68.38-86.36,2.15-6.72,2.11-11.03-5.7-14.27,8.53-5.69,17.31-8.49,27.08-12.92-1.37,10.31-2.57,19.43-3.82,28.86q-9.85-5.4-12.58,5.08c-7.96,30.58,12.95,64,44.68,71.42,2.14.5,4.24,1.16,6.36,1.74,4.77,1.86,9.55,1.84,14.32,0"/>
  <path class="st2" d="M199.8,90.78c-1.33-9.14-2.66-18.32-4.16-28.74,9.57,4.09,17.91,7.66,26.32,11.25-6.3,8.25-6,8.07-.57,17.11,20.27,33.77,21.38,68.43.54,101.79-21.03,33.67-52.83,47.92-92.48,44.15-.83-.08-1.68-.14-2.48-.36-2.25-.62-5.6-.23-4.99-4.05.55-3.44,3.08-2.97,5.8-2.62,14.53,1.87,28.71.73,42.77-3.92,55.33-18.29,77.42-89.61,42.15-135.89-5.67-7.44-8.13.85-12.9,1.27"/>
  <path class="st0" d="M80.45,190.56c.92,7.18,1.99,14.27,2.69,21.4.48,4.94-1.88,5.87-6.11,3.73-3.71-1.89-7.49-3.69-11.37-5.21-5.26-2.05-11.28-3.55-2.21-9.08,3.58-2.18.63-4.34-.55-6.2-20.49-32.12-21.72-65.22-4.66-98.99,17.26-34.16,59.93-55.15,97.52-48.44,2.43.43,5.72.45,5.36,3.85-.5,4.77-4.42,3.06-7.22,2.78-38.67-3.88-69.1,10.11-88.62,43.74-18.08,31.15-15.7,62.7,3.09,93.24,4.48,7.27,7.1-.73,12.1-.82"/>
  <path class="st11" d="M147.88,202.95c-2.96,2-10.03,2.69-14.58,1.38-.11-.03-.18-.47-.13-.69.05-.25.25-.47.39-.7,4.77,0,9.55,0,14.32,0"/>
  <path class="st8" d="M140.8,114.17c15.68-.08,31.14,17.2,21.79,36.2-1.32,2.69-3.45,4.8-5.5,6.74-2.95,2.77-4.33,5.76-4.08,9.69.11,1.79-.1,3.71-2.36,3.73-2.22.02-2.38-1.84-2.47-3.66-.22-5.07,1.31-9.27,5.17-12.8,7.19-6.55,9.06-15.18,5.42-23.32-3.55-7.94-11.3-12.37-20.19-11.57-8.73.79-15.84,6.85-17.67,16.19-1.61,8.27,2.19,15.03,8.19,20.42,4,3.6,4.07,8.04,3.78,12.71-.07,1.24-1.05,2.06-2.28,2.05-1.47-.02-2.53-1.03-2.33-2.44.83-6-3.05-9.26-6.53-13.31-6.56-7.64-7.73-16.71-3.71-26.1,3.55-8.26,13.26-14.98,22.77-14.54"/>
  <path class="st10" d="M132.91,135.91c1.96-.03,2.88,1.38,3.84,2.5,1.48,1.71,2.59,1.6,4.06-.03,1.84-2.05,3.9-3.89,5.87-5.82,1.21-1.19,2.57-1.26,3.68-.06,1.02,1.1.68,2.44-.36,3.38-3.23,2.88-6.48,5.71-9.14,9.15-.85,1.1-2.28,1.54-3.38.64-2.27-1.84-4.75-3.53-6.26-6.14-1.22-2.08-.1-3.08,1.7-3.62"/>
  <path class="st12" d="M140.8,176.66c2.67,0,5.35,0,8.02,0,1.55,0,2.91.47,2.99,2.24.09,1.75-1.11,2.48-2.72,2.49-5.63.01-11.26,0-16.89,0-1.62,0-2.83-.67-2.78-2.43.05-1.8,1.4-2.27,2.94-2.29,2.81-.02,5.63,0,8.44,0"/>
  <path class="st7" d="M118.77,99.2c1.19.04,1.95.55,2.49,1.47,1.33,2.29,2.7,4.57,4.02,6.88.79,1.39.84,2.7-.78,3.55-1.35.72-2.53.26-3.26-.94-1.53-2.49-3.07-5.01-4.34-7.64-.85-1.77.14-2.91,1.87-3.32"/>
  <path class="st4" d="M157.9,111.47c-1.8-.39-3.07-1.36-2.31-2.94,1.45-3,3.24-5.85,5.06-8.66.55-.85,1.72-.91,2.69-.38.95.52,1.57,1.48,1.16,2.44-1.36,3.21-3.05,6.26-5.27,8.97-.3.37-.98.44-1.32.57"/>
  <path class="st3" d="M101.84,136.5c1.4,0,2.79-.03,4.19.02,1.42.05,2.44.68,2.52,2.22.09,1.76-1.05,2.54-2.59,2.61-2.65.11-5.3.07-7.95.03-1.76-.03-3.1-.88-2.99-2.72.1-1.66,1.47-2.19,3.05-2.16,1.26.02,2.51,0,3.77,0"/>
  <path class="st1" d="M179.34,136.35c2.33.91,6.72-1.64,6.68,2.66-.04,3.61-4.14,2.39-6.54,2.27-2.4-.12-6.65,1.78-6.6-2.5.06-3.98,4.22-1.55,6.46-2.43"/>
  <path class="st5" d="M142.95,100.3c0,1.39.1,2.79-.03,4.17-.12,1.35-.78,2.43-2.36,2.38-1.55-.05-2.24-1.14-2.29-2.49-.1-2.78-.07-5.56,0-8.35.02-1.39.75-2.52,2.2-2.58,1.68-.06,2.45,1.11,2.52,2.7.06,1.39.01,2.78.01,4.17h-.05Z"/>
  <path class="st6" d="M103.45,114.93c3.27,1.43,6.59,3.17,9.24,5.69,1.21,1.15.4,2.97-1.66,3.3-1.4.23-9.61-4.5-9.97-5.77-.54-1.89.28-2.94,2.39-3.22"/>
  <path class="st13" d="M171.32,123.9c-1.7.09-2.59-.16-3.02-1.26-.47-1.22-.17-2.27.9-2.94,2.33-1.45,4.71-2.83,7.09-4.21,1.02-.59,2.32-.97,3.08,0,.77.99.83,2.94.05,3.51-2.7,1.95-5.71,3.49-8.1,4.89"/>
  <path class="st9" d="M140.7,187.3c.56,0,1.12,0,1.68,0,1.99-.03,4.6-.24,4.69,2.28.11,2.97-2.72,1.47-4.23,1.65-2.05.24-3.94,1.21-6.11.98-1.5-.16-2.52-.64-2.68-2.02-.19-1.61.85-2.65,2.45-2.81,1.39-.15,2.8-.03,4.21-.03v-.05Z"/>
</svg>