<?xml version="1.0" encoding="UTF-8"?>
<svg id="Layer_1" xmlns="http://www.w3.org/2000/svg" version="1.1" xmlns:xlink="http://www.w3.org/1999/xlink" viewBox="0 0 283.46 283.46">
  <!-- Generator: Adobe Illustrator 29.6.1, SVG Export Plug-In . SVG Version: 2.1.1 Build 9)  -->
  <defs>
    <style>
      .st0 {
        fill: url(#linear-gradient2);
      }

      .st1 {
        fill: url(#linear-gradient10);
      }

      .st2 {
        fill: url(#linear-gradient1);
      }

      .st3 {
        fill: url(#linear-gradient9);
      }

      .st4 {
        fill: url(#linear-gradient8);
      }

      .st5 {
        fill: url(#linear-gradient11);
      }

      .st6 {
        fill: url(#linear-gradient12);
      }

      .st7 {
        fill: url(#linear-gradient7);
      }

      .st8 {
        fill: url(#linear-gradient4);
      }

      .st9 {
        fill: url(#linear-gradient5);
      }

      .st10 {
        fill: url(#linear-gradient3);
      }

      .st11 {
        fill: url(#linear-gradient6);
      }

      .st12 {
        fill: url(#linear-gradient);
      }
    </style>
    <linearGradient id="linear-gradient" x1="142.15" y1="55.78" x2="142.15" y2="115.8" gradientUnits="userSpaceOnUse">
      <stop offset="0" stop-color="#2f5495"/>
      <stop offset="1" stop-color="#203462"/>
    </linearGradient>
    <linearGradient id="linear-gradient1" x1="143.55" y1="139.21" x2="143.55" y2="195.72" xlink:href="#linear-gradient"/>
    <linearGradient id="linear-gradient2" x1="194.13" y1="139.21" x2="194.13" y2="195.72" xlink:href="#linear-gradient"/>
    <linearGradient id="linear-gradient3" x1="92.98" y1="139.21" x2="92.98" y2="195.72" xlink:href="#linear-gradient"/>
    <linearGradient id="linear-gradient4" x1="155.49" y1="201.31" x2="155.49" y2="201.41" xlink:href="#linear-gradient"/>
    <linearGradient id="linear-gradient5" x1="131.62" y1="201.31" x2="131.62" y2="201.44" xlink:href="#linear-gradient"/>
    <linearGradient id="linear-gradient6" x1="182.19" y1="201.31" x2="182.19" y2="201.44" xlink:href="#linear-gradient"/>
    <linearGradient id="linear-gradient7" x1="206.06" y1="201.31" x2="206.06" y2="201.41" xlink:href="#linear-gradient"/>
    <linearGradient id="linear-gradient8" x1="81.04" y1="201.31" x2="81.04" y2="201.44" xlink:href="#linear-gradient"/>
    <linearGradient id="linear-gradient9" x1="104.91" y1="201.31" x2="104.91" y2="201.41" xlink:href="#linear-gradient"/>
    <linearGradient id="linear-gradient10" x1="141.73" y1="196.92" x2="141.73" y2="214.31" xlink:href="#linear-gradient"/>
    <linearGradient id="linear-gradient11" x1="141.73" y1="118.29" x2="141.73" y2="137.4" xlink:href="#linear-gradient"/>
    <linearGradient id="linear-gradient12" x1="141.73" y1="215.91" x2="141.73" y2="227.68" xlink:href="#linear-gradient"/>
  </defs>
  <path class="st12" d="M214.16,115.8c6.27,0,7.16-2.89,1.99-6.43l-64.06-50.92c-5.17-3.54-13.65-3.56-18.84-.06l-65.08,51.03c-5.19,3.51-4.31,6.38,1.95,6.38h144.04Z"/>
  <path class="st2" d="M136.17,139.21h14.76c2.51,0,4.56,2.04,4.56,4.56v47.39c0,2.51-2.04,4.55-4.55,4.55h-14.76c-2.52,0-4.56-2.04-4.56-4.56v-47.39c0-2.52,2.04-4.56,4.56-4.56Z"/>
  <path class="st0" d="M186.75,139.21h14.76c2.51,0,4.56,2.04,4.56,4.56v47.39c0,2.51-2.04,4.56-4.56,4.56h-14.76c-2.52,0-4.56-2.04-4.56-4.56v-47.39c0-2.51,2.04-4.56,4.56-4.56Z"/>
  <path class="st10" d="M85.6,139.21h14.76c2.51,0,4.56,2.04,4.56,4.56v47.39c0,2.51-2.04,4.56-4.56,4.56h-14.76c-2.52,0-4.56-2.04-4.56-4.56v-47.39c0-2.51,2.04-4.56,4.56-4.56Z"/>
  <g>
    <path class="st8" d="M155.48,201.33s0,.05,0,.07c0,.02,0,.02,0-.04s0-.06,0-.04Z"/>
    <path class="st9" d="M131.62,201.36c0,.06,0,.09,0,.07,0-.02,0-.09,0-.11,0-.02,0-.03,0,.04Z"/>
    <path class="st11" d="M182.19,201.36c0,.06,0,.09,0,.07,0-.02,0-.09,0-.11,0-.02,0-.03,0,.04Z"/>
    <path class="st7" d="M206.06,201.33s0,.05,0,.07c0,.02,0,.02,0-.04s0-.06,0-.04Z"/>
    <path class="st4" d="M81.04,201.36c0,.06,0,.09,0,.07,0-.02,0-.09,0-.11,0-.02,0-.03,0,.04Z"/>
    <path class="st3" d="M104.91,201.33s0,.05,0,.07c0,.02,0,.02,0-.04s0-.06,0-.04Z"/>
    <path class="st1" d="M63.93,209.75c0,2.51,2.05,4.56,4.56,4.56h146.5c2.51,0,4.56-2.05,4.56-4.56v-2.66c0-2.51-2.05-4.56-4.56-4.56h-4.55c-2.51,0-4.52-.17-4.47-.38.05-.21-.37-1.79-.95-3.01-.57-1.22-5.56-2.22-8.06-2.22h-5.65c-2.51,0-5.57.45-6.8,1-1.24.55-2.29,3.63-2.27,3.85.02.22-1.91.77-4.41.77h-17.97c-2.51,0-4.52-.17-4.47-.38.05-.21-.37-1.79-.94-3.01-.57-1.22-5.56-2.22-8.07-2.22h-5.65c-2.51,0-5.57.45-6.8,1-1.23.55-2.29,3.63-2.27,3.85.02.22-1.9.77-4.41.77h-17.97c-2.5,0-4.52-.17-4.47-.38.05-.21-.37-1.79-.94-3.01-.57-1.22-5.56-2.22-8.07-2.22h-5.65c-2.51,0-5.57.45-6.8,1-1.24.55-2.29,3.63-2.27,3.85.02.22-1.9.77-4.41.77h-8.19c-2.51,0-4.56,2.05-4.56,4.56v2.66Z"/>
  </g>
  <path class="st5" d="M184.47,136.38c1.25.56,4.33,1.02,6.83,1.02h5.65c2.51,0,5.58-.46,6.83-1.02,1.25-.57,2.28-4.16,2.28-4.92s2.05-1.39,4.56-1.39h4.36c2.51,0,4.56-2.05,4.56-4.56v-2.66c0-2.51-2.05-4.56-4.56-4.56H68.48c-2.51,0-4.56,2.05-4.56,4.56v2.66c0,2.51,2.05,4.56,4.56,4.56h8c2.51,0,4.56.63,4.56,1.39s.46,2.41,1.03,3.67c.56,1.25,5.58,2.28,8.09,2.28h5.65c2.51,0,5.58-.46,6.83-1.02,1.25-.57,2.28-4.16,2.28-4.92s2.05-1.39,4.56-1.39h17.59c2.51,0,4.56.63,4.56,1.39s.46,2.41,1.02,3.67c.56,1.25,5.58,2.28,8.09,2.28h5.65c2.51,0,5.58-.46,6.83-1.02,1.25-.57,2.28-4.16,2.28-4.92s2.05-1.39,4.56-1.39h17.59c2.51,0,4.56.63,4.56,1.39s1.02,4.35,2.28,4.92Z"/>
  <path class="st6" d="M53.16,215.91h177.15c2.76,0,5,2.24,5,5v1.78c0,2.76-2.24,5-5,5H53.15c-2.76,0-5-2.24-5-5v-1.78c0-2.76,2.24-5,5-5Z"/>
</svg>