<?xml version="1.0" encoding="UTF-8"?>
<svg id="Layer_1" xmlns="http://www.w3.org/2000/svg" version="1.1" xmlns:xlink="http://www.w3.org/1999/xlink" viewBox="0 0 283.46 283.46">
  <!-- Generator: Adobe Illustrator 29.6.1, SVG Export Plug-In . SVG Version: 2.1.1 Build 9)  -->
  <defs>
    <style>
      .st0 {
        fill: url(#linear-gradient1);
      }

      .st1 {
        fill: url(#linear-gradient);
      }
    </style>
    <linearGradient id="linear-gradient" x1="74.05" y1="141.73" x2="103.89" y2="141.73" gradientUnits="userSpaceOnUse">
      <stop offset="0" stop-color="#2f5495"/>
      <stop offset="1" stop-color="#203462"/>
    </linearGradient>
    <linearGradient id="linear-gradient1" x1="128.36" y1="162.28" x2="209.41" y2="162.28" xlink:href="#linear-gradient"/>
  </defs>
  <path class="st1" d="M76.87,116.59h24.02v93.25h-24.02v-93.25ZM88.88,102.71c-8.25,0-14.83-6.38-14.83-14.45s6.57-14.63,14.83-14.63,15.01,6.38,15.01,14.63-6.76,14.45-15.01,14.45"/>
  <path class="st0" d="M185.59,209.84v-59.67c0-9.57-2.63-15.36-11.64-15.36-11.99,0-21.57,13.68-21.57,30.01v45.02h-24.02v-93.25h22.71c0,4.31-.39,11.81-1.31,16.69h.18c5.63-10.87,16.51-18.58,31.7-18.58,21.02,0,27.77,13.32,27.77,29.66v65.47h-23.83Z"/>
</svg>