<?xml version="1.0" encoding="UTF-8"?>
<svg id="Layer_1" xmlns="http://www.w3.org/2000/svg" version="1.1" xmlns:xlink="http://www.w3.org/1999/xlink" viewBox="0 0 283.46 283.46">
  <!-- Generator: Adobe Illustrator 29.6.1, SVG Export Plug-In . SVG Version: 2.1.1 Build 9)  -->
  <defs>
    <style>
      .st0 {
        fill: url(#linear-gradient);
      }
    </style>
    <linearGradient id="linear-gradient" x1="100.15" y1="172.88" x2="183.79" y2="89.24" gradientUnits="userSpaceOnUse">
      <stop offset="0" stop-color="#2f5495"/>
      <stop offset="1" stop-color="#203462"/>
    </linearGradient>
  </defs>
  <path class="st0" d="M116.94,119.91c.05,13.54,11.37,24.89,24.85,24.93,13.49.06,25.01-11.29,25.07-24.74.09-14.03-11.14-25.27-25.18-25.15-13.76.11-24.8,11.25-24.74,24.96M141.85,214.58c-18.7-26.17-37.45-50.92-48-80.42-7.5-20.93-.91-38.78,15.12-53.35,14.03-12.79,37.48-15.73,55.46-6.68,18.97,9.56,28.63,25.45,28.27,46.67-.11,6.1-2,12.48-4.4,18.18-11.46,27.11-28.37,50.93-46.45,75.6"/>
</svg>