<svg id="Layer_1" data-name="Layer 1" xmlns="http://www.w3.org/2000/svg" viewBox="0 0 684.94 375.83"><defs><style>.cls-1{fill:#243779;}.cls-2{fill:#8b878a;}</style></defs><rect class="cls-1" x="77.4" y="116.34" width="24.33" height="93.6"/><path class="cls-1" d="M142.11,125.33a10.23,10.23,0,1,1-10.23-10.24,10.2,10.2,0,0,1,10.23,10.24m1.94,84.61H119.71V141.22h24.34Z"/><path class="cls-1" d="M189.81,178.7c7.05,0,12.17-5.12,12.17-11.2A11.51,11.51,0,0,0,190.5,156a11.84,11.84,0,0,0-12,11.76c0,5.8,4.29,10.92,11.34,10.92m-13.68,44.38c0,7.74,12.58,7.74,15.48,7.74,8.71,0,15.21-2.49,15.21-8,0-6.91-11.48-7.19-14.8-7.19-11.2,0-15.89,2.21-15.89,7.47m52.67-67.2h-12a17.26,17.26,0,0,1,6.36,13.55c0,11.34-9.53,21.43-27.24,22.4-3.17.14-8.43.83-8.43,4.56,0,3.32,3,3.46,12.3,4.29,6.92.55,26.41,2.07,26.41,19.91,0,12.44-9,21.84-35.25,21.84-25.86,0-35.53-7.87-35.53-18.11,0-2.76,1.24-12.44,16.31-14.38a9.7,9.7,0,0,1-5.94-8.71c0-3.59,2.21-10.09,10.5-11.61-8.85-2.22-18.94-9.26-18.94-22.12,0-18.53,15.07-26.27,33.73-26.27H228.8Z"/><path class="cls-1" d="M261.85,116.34V151c8.57-9.12,16.59-11.06,24.33-11.06,14.93,0,24.75,7.88,24.75,27.79v42.17H286.6V174.27c0-.55,1.79-15.48-10-15.48-7.19,0-12,6.63-14.79,10.78v40.37H237.51v-93.6Z"/><path class="cls-1" d="M319.23,153.81v4.29h11.06v27.37c0,12.61,4.81,21,15.19,24.21V127.11Z"/><path class="cls-2" d="M364.44,191.83c-9.82,0-9.82-5.94-9.82-11.75v-22h23.23V141.23H354.62V120.62h-2.76l-6.38,6.49v82.57a37.43,37.43,0,0,0,11.08,1.51,59.38,59.38,0,0,0,23.09-5.26V187c-5.4,2.77-10,4.84-15.21,4.84"/><path class="cls-2" d="M438,169.43c0-8.71-4.57-14.52-12.72-14.52-7.89,0-13.56,5.81-13.56,14.52Zm22.81,12H412.42c1.79,8.57,10.23,14.24,19.49,14.24s18.53-2.9,27.1-6.91v15.07c-3.6,1.94-14,7.33-32.21,7.33-26.27,0-39.41-16-39.41-35.95S400.53,140,426.8,140c15.34,0,34,9,34,36.64Z"/><path class="cls-2" d="M530.5,163.07c-4.43-1.38-12.86-3.73-18.53-3.73-7.33,0-16.59,4.15-16.59,16s9.26,16.45,16.59,16.45c5.67,0,13.83-2.35,19.63-4.15v19.08c-5.53,1.94-12.3,4.43-23.23,4.43-32.76,0-38.57-25.31-38.57-35.81s5.81-35.4,38.57-35.4a57.33,57.33,0,0,1,22.13,4Z"/><path class="cls-2" d="M567.69,116.34V151C576.26,141.92,584.28,140,592,140c14.93,0,24.75,7.88,24.75,27.79v42.17H592.44V174.27c0-.55,1.79-15.48-10-15.48-7.2,0-12,6.63-14.8,10.78v40.37H543.36v-93.6Z"/><path class="cls-1" d="M79.69,290.61H98.37v4.58H79.69ZM77.4,260.83H82v34.36H77.4Z"/><path class="cls-1" d="M103.31,270.66h4.58v24.53h-4.58Zm0-9.83h4.58v4.82h-4.58Z"/><path class="cls-1" d="M122.67,305.17a10.42,10.42,0,0,1-4.71-1,7.69,7.69,0,0,1-3.22-2.9l3.1-2.95a6.48,6.48,0,0,0,2.14,2,5.75,5.75,0,0,0,6.68-.82,6,6,0,0,0,1.44-4.31V270.66h4.58v23.8q0,5.1-2.62,7.91a9.64,9.64,0,0,1-7.39,2.8m-.43-9.55a7.2,7.2,0,0,1-6-2.61q-2.1-2.61-2.1-7.37v-5.41q0-4.77,2-7.39a6.94,6.94,0,0,1,5.78-2.61,6.72,6.72,0,0,1,3.79,1.14,8.18,8.18,0,0,1,2.77,3.19l-.47,5a6.05,6.05,0,0,0-.54-2.67,3.77,3.77,0,0,0-1.56-1.69,4.92,4.92,0,0,0-2.48-.58,4.36,4.36,0,0,0-3.52,1.49,6.34,6.34,0,0,0-1.24,4.18v5.34a6.17,6.17,0,0,0,1.24,4.13,4.4,4.4,0,0,0,3.52,1.45,4.82,4.82,0,0,0,2.48-.6,3.89,3.89,0,0,0,1.56-1.74,6.25,6.25,0,0,0,.54-2.72l.31,5.18a7.33,7.33,0,0,1-2.16,3,6,6,0,0,1-4,1.31"/><path class="cls-1" d="M153.79,295.19V280.33a5.84,5.84,0,0,0-1.27-4,4.58,4.58,0,0,0-3.61-1.42,4.28,4.28,0,0,0-4.69,4.7l-.47-4.72a8.59,8.59,0,0,1,2.82-3.37,6.62,6.62,0,0,1,3.85-1.2,7,7,0,0,1,5.87,2.62q2.09,2.61,2.08,7.38v14.89Zm-14.15-34.36h4.58v34.36h-4.58Z"/><path class="cls-1" d="M171.39,295.31a4.92,4.92,0,0,1-4.16-1.68,7.77,7.77,0,0,1-1.29-4.82V263.52h4.58v25.34a2.46,2.46,0,0,0,.33,1.37,1.14,1.14,0,0,0,1,.5H174v4.58Zm-7.86-24.65H174V275H163.53Z"/><path class="cls-1" d="M197.87,263.64h4.58v31.55h-4.58Zm-9.23-2.81h23v4.58h-23Z"/><path class="cls-1" d="M221.89,295.55q-4.87,0-7.54-2.86t-2.67-8.13v-2.77c0-3.65.85-6.48,2.57-8.48a9,9,0,0,1,7.24-3,7.87,7.87,0,0,1,6.81,3.41q2.41,3.41,2.42,9.55v1.6H215V281h11.36a8.5,8.5,0,0,0-1.47-4.66,4.05,4.05,0,0,0-3.4-1.68,4.86,4.86,0,0,0-4,1.8,7.94,7.94,0,0,0-1.44,5.08v3.12a6.6,6.6,0,0,0,1.54,4.68,5.65,5.65,0,0,0,4.32,1.63,6.79,6.79,0,0,0,2.76-.59,7.78,7.78,0,0,0,2.45-1.65l3,3.16a12.66,12.66,0,0,1-3.88,2.71,10.62,10.62,0,0,1-4.34,1"/><path class="cls-1" d="M246.41,295.55q-4.8,0-7.44-2.79t-2.64-7.87v-4q0-5,2.64-7.79t7.44-2.76a11.61,11.61,0,0,1,4.94,1,8.51,8.51,0,0,1,3.51,2.91l-3.31,3.12a6.49,6.49,0,0,0-2.29-1.82,6.26,6.26,0,0,0-2.78-.64,5.34,5.34,0,0,0-4.11,1.56,6.21,6.21,0,0,0-1.46,4.4v4a6.4,6.4,0,0,0,1.46,4.49,5.28,5.28,0,0,0,4.11,1.58,6,6,0,0,0,2.78-.68,6.85,6.85,0,0,0,2.29-1.94l3.31,3.36a8.62,8.62,0,0,1-3.52,2.84,11.78,11.78,0,0,1-4.93,1"/><path class="cls-1" d="M274.05,295.19V280.33a5.79,5.79,0,0,0-1.27-4,4.55,4.55,0,0,0-3.6-1.42,4.68,4.68,0,0,0-3.47,1.23,4.73,4.73,0,0,0-1.22,3.47l-.47-4.72a8.49,8.49,0,0,1,2.81-3.37,6.65,6.65,0,0,1,3.85-1.2,7.06,7.06,0,0,1,5.88,2.62q2.07,2.61,2.07,7.38v14.89Zm-14.14-34.36h4.58v34.36h-4.58Z"/><path class="cls-1" d="M299.74,295.19V280.33a5.79,5.79,0,0,0-1.27-4,4.55,4.55,0,0,0-3.6-1.42,4.65,4.65,0,0,0-3.47,1.25,4.82,4.82,0,0,0-1.22,3.52l-.48-4.72a8.65,8.65,0,0,1,2.82-3.43,6.66,6.66,0,0,1,3.85-1.21,7,7,0,0,1,5.87,2.62q2.08,2.61,2.08,7.38v14.89ZM285.6,270.66h4.58v24.53H285.6Z"/><path class="cls-1" d="M320.22,291a4.56,4.56,0,0,0,3.72-1.58,6.81,6.81,0,0,0,1.31-4.44v-4.07a6.7,6.7,0,0,0-1.31-4.42,5.19,5.19,0,0,0-7.42,0,6.59,6.59,0,0,0-1.33,4.42v4.07a6.7,6.7,0,0,0,1.33,4.44,4.53,4.53,0,0,0,3.7,1.58m0,4.59a9.09,9.09,0,0,1-7.1-2.8q-2.5-2.81-2.51-7.89v-4q0-5,2.51-7.8a10.48,10.48,0,0,1,14.2,0q2.51,2.76,2.51,7.8v4.07q0,5.06-2.51,7.83a9.1,9.1,0,0,1-7.1,2.78"/><path class="cls-1" d="M340.92,260.83v28a2.3,2.3,0,0,0,.37,1.37,1.25,1.25,0,0,0,1,.5h2.15v4.58H341.8a5,5,0,0,1-4-1.7,7.22,7.22,0,0,1-1.44-4.8v-28Z"/><path class="cls-1" d="M358.6,291a4.53,4.53,0,0,0,3.71-1.58,6.76,6.76,0,0,0,1.32-4.44v-4.07a6.64,6.64,0,0,0-1.32-4.42,5.19,5.19,0,0,0-7.42,0,6.64,6.64,0,0,0-1.32,4.42v4.07a6.76,6.76,0,0,0,1.32,4.44A4.55,4.55,0,0,0,358.6,291m0,4.59a9.07,9.07,0,0,1-7.1-2.8q-2.52-2.81-2.52-7.89v-4q0-5,2.52-7.8a10.47,10.47,0,0,1,14.19,0q2.52,2.76,2.52,7.8v4.07q0,5.06-2.52,7.83a9.09,9.09,0,0,1-7.09,2.78"/><path class="cls-1" d="M382.53,305.17a10.38,10.38,0,0,1-4.7-1,7.63,7.63,0,0,1-3.22-2.9l3.09-2.95a6.51,6.51,0,0,0,2.15,2,5.23,5.23,0,0,0,2.61.71,5.31,5.31,0,0,0,4.07-1.53,6,6,0,0,0,1.44-4.31V270.66h4.58v23.8q0,5.1-2.62,7.91a9.65,9.65,0,0,1-7.4,2.8m-.42-9.55a7.22,7.22,0,0,1-6-2.61q-2.1-2.61-2.1-7.37v-5.41q0-4.77,2.06-7.39a6.94,6.94,0,0,1,5.78-2.61,6.67,6.67,0,0,1,3.78,1.14,8.21,8.21,0,0,1,2.78,3.19l-.47,5a6.05,6.05,0,0,0-.54-2.67,3.77,3.77,0,0,0-1.56-1.69,5,5,0,0,0-2.49-.58,4.33,4.33,0,0,0-3.51,1.49,6.34,6.34,0,0,0-1.24,4.18v5.34a6.17,6.17,0,0,0,1.24,4.13,4.37,4.37,0,0,0,3.51,1.45,4.86,4.86,0,0,0,2.49-.6,3.89,3.89,0,0,0,1.56-1.74,6.25,6.25,0,0,0,.54-2.72l.31,5.18a7.35,7.35,0,0,1-2.17,3,6,6,0,0,1-4,1.31"/><path class="cls-1" d="M399.51,270.66h4.58v24.53h-4.58Zm0-9.83h4.58v4.82h-4.58Z"/><path class="cls-1" d="M420.59,295.55q-4.87,0-7.54-2.86t-2.67-8.13v-2.77c0-3.65.85-6.48,2.57-8.48a9,9,0,0,1,7.24-3,7.87,7.87,0,0,1,6.81,3.41q2.42,3.41,2.42,9.55v1.6H413.7V281h11.36a8.5,8.5,0,0,0-1.47-4.66,4.05,4.05,0,0,0-3.4-1.68,4.86,4.86,0,0,0-4,1.8,7.94,7.94,0,0,0-1.44,5.08v3.12a6.6,6.6,0,0,0,1.54,4.68,5.64,5.64,0,0,0,4.32,1.63,6.87,6.87,0,0,0,2.77-.59,7.85,7.85,0,0,0,2.44-1.65l3,3.16a12.66,12.66,0,0,1-3.88,2.71,10.58,10.58,0,0,1-4.34,1"/><path class="cls-1" d="M443.94,295.55a15.71,15.71,0,0,1-5.62-1,13.56,13.56,0,0,1-4.53-2.87l2.72-3.52a15.82,15.82,0,0,0,3.76,2.27,9.75,9.75,0,0,0,3.67.75,7.56,7.56,0,0,0,4.08-.88,3,3,0,0,0,1.36-2.66,2.11,2.11,0,0,0-.91-1.94,5.66,5.66,0,0,0-2.38-.74c-1-.12-2-.22-3.16-.3-.94-.08-1.87-.2-2.8-.37a7.61,7.61,0,0,1-2.54-.9,4.72,4.72,0,0,1-1.83-1.92,8.72,8.72,0,0,1,1.58-9.27q2.28-1.94,6.76-1.94a16.13,16.13,0,0,1,5.1.78,14.76,14.76,0,0,1,4.42,2.39L450.86,277a15.7,15.7,0,0,0-3.45-1.77,10.11,10.11,0,0,0-3.31-.59,6,6,0,0,0-3.5.84,2.9,2.9,0,0,0-1.17,2.52,1.7,1.7,0,0,0,.81,1.59,5.21,5.21,0,0,0,2.13.63c.89.09,1.84.18,2.85.26s2,.18,3,.34a8.56,8.56,0,0,1,2.75,1,5.18,5.18,0,0,1,2,2.1,8,8,0,0,1,.76,3.81,7.15,7.15,0,0,1-2.43,5.91c-1.63,1.3-4.07,2-7.34,2"/><path class="cls-1" d="M483,295.55a11,11,0,0,1-6-1.6,10.66,10.66,0,0,1-4-4.48,15.13,15.13,0,0,1-1.41-6.73v-9.43a15.2,15.2,0,0,1,1.41-6.76,10.66,10.66,0,0,1,4-4.48,11,11,0,0,1,6-1.6,10.69,10.69,0,0,1,5.18,1.28,11.23,11.23,0,0,1,3.92,3.57,13.62,13.62,0,0,1,2.15,5.36H489.6a7.54,7.54,0,0,0-1.43-2.89,7.22,7.22,0,0,0-2.35-1.93,6.25,6.25,0,0,0-7.62,1.55,9,9,0,0,0-1.83,5.9v9.43a9,9,0,0,0,1.83,5.88,6,6,0,0,0,4.84,2.22,6.61,6.61,0,0,0,4-1.41,7,7,0,0,0,2.54-4.09h4.69a13.49,13.49,0,0,1-2.16,5.36,11.35,11.35,0,0,1-3.93,3.57,10.56,10.56,0,0,1-5.16,1.28"/><path class="cls-1" d="M509.29,291a4.53,4.53,0,0,0,3.71-1.58,6.76,6.76,0,0,0,1.32-4.44v-4.07a6.64,6.64,0,0,0-1.32-4.42,5.19,5.19,0,0,0-7.42,0,6.64,6.64,0,0,0-1.32,4.42v4.07a6.76,6.76,0,0,0,1.32,4.44,4.57,4.57,0,0,0,3.71,1.58m0,4.59a9.07,9.07,0,0,1-7.1-2.8q-2.51-2.81-2.51-7.89v-4q0-5,2.51-7.8a10.47,10.47,0,0,1,14.19,0q2.52,2.76,2.52,7.8v4.07q0,5.06-2.52,7.83a9.07,9.07,0,0,1-7.09,2.78"/><rect class="cls-1" x="523.73" y="290.13" width="4.81" height="5.06"/><path class="cls-1" d="M550,290.61H568.7v4.58H550Zm-2.29-29.78h4.58v34.36h-4.58Z"/><path class="cls-1" d="M579.71,295.31a4.93,4.93,0,0,1-4.17-1.68,7.77,7.77,0,0,1-1.29-4.82V263.52h4.58v25.34a2.37,2.37,0,0,0,.34,1.37,1.11,1.11,0,0,0,1,.5h2.21v4.58Zm-7.86-24.65h10.51V275H571.85Z"/><path class="cls-1" d="M601.89,260.83h4.58v34.36h-4.58ZM596,295.62a7.2,7.2,0,0,1-6-2.61q-2.1-2.61-2.1-7.37v-5.41q0-4.77,2-7.39a6.94,6.94,0,0,1,5.78-2.61,6.72,6.72,0,0,1,3.79,1.14,8.18,8.18,0,0,1,2.77,3.19l-.47,5a6.05,6.05,0,0,0-.54-2.67,3.77,3.77,0,0,0-1.56-1.69,4.92,4.92,0,0,0-2.48-.58,4.33,4.33,0,0,0-3.51,1.49,6.28,6.28,0,0,0-1.25,4.18v5.34a6.12,6.12,0,0,0,1.25,4.13,4.37,4.37,0,0,0,3.51,1.45,4.82,4.82,0,0,0,2.48-.6,3.89,3.89,0,0,0,1.56-1.74,6.25,6.25,0,0,0,.54-2.72l.32,5.18a7.45,7.45,0,0,1-2.17,3,6,6,0,0,1-4,1.31"/><rect class="cls-1" x="612.65" y="290.13" width="4.81" height="5.06"/></svg>