<svg id="Layer_1" data-name="Layer 1" xmlns="http://www.w3.org/2000/svg" viewBox="0 0 684.94 375.83"><defs><style>.cls-1{fill:#fff;}.cls-2{fill:#c5c4c6;}</style></defs><rect class="cls-1" x="76.25" y="114.11" width="24.36" height="93.71"/><path class="cls-1" d="M141,123.11a10.25,10.25,0,1,1-10.25-10.24A10.22,10.22,0,0,1,141,123.11M143,207.82H118.61V139H143Z"/><path class="cls-1" d="M188.79,176.54c7.06,0,12.18-5.12,12.18-11.21a11.52,11.52,0,0,0-11.49-11.49,11.85,11.85,0,0,0-12,11.77c0,5.81,4.29,10.93,11.35,10.93M175.09,221c0,7.75,12.59,7.75,15.5,7.75,8.72,0,15.22-2.49,15.22-8,0-6.92-11.48-7.2-14.81-7.2-11.21,0-15.91,2.22-15.91,7.48m52.73-67.27h-12a17.28,17.28,0,0,1,6.37,13.56c0,11.35-9.55,21.46-27.27,22.43-3.18.14-8.44.83-8.44,4.56,0,3.33,3,3.47,12.31,4.3,6.93.55,26.44,2.07,26.44,19.92,0,12.47-9,21.87-35.29,21.87-25.89,0-35.57-7.88-35.57-18.13,0-2.76,1.24-12.45,16.33-14.39a9.72,9.72,0,0,1-5.95-8.72c0-3.6,2.21-10.11,10.52-11.62-8.87-2.22-19-9.28-19-22.15,0-18.55,15.09-26.3,33.77-26.3h37.79Z"/><path class="cls-1" d="M260.9,114.12v34.74c8.58-9.14,16.61-11.07,24.36-11.07,14.95,0,24.78,7.88,24.78,27.81v42.22H285.68V172.11c0-.55,1.8-15.5-10-15.5-7.2,0-12,6.64-14.81,10.8v40.41H236.54v-93.7Z"/><path class="cls-1" d="M318.35,151.63v4.29h11.07v27.4c0,12.62,4.82,21,15.21,24.23V124.9Z"/><path class="cls-2" d="M363.61,189.69c-9.83,0-9.83-5.95-9.83-11.77v-22H377V139H353.78V118.41H351l-6.39,6.49v82.66a37.62,37.62,0,0,0,11.1,1.51,59.45,59.45,0,0,0,23.11-5.26v-19c-5.4,2.77-10,4.84-15.22,4.84"/><path class="cls-2" d="M437.24,167.26c0-8.71-4.56-14.53-12.73-14.53-7.89,0-13.57,5.82-13.57,14.53Zm22.84,12.05H411.64c1.79,8.58,10.24,14.26,19.51,14.26s18.55-2.91,27.13-6.93v15.09c-3.6,1.94-14,7.34-32.25,7.34-26.3,0-39.45-16.06-39.45-36s13.15-35.3,39.45-35.3c15.37,0,34.05,9,34.05,36.68Z"/><path class="cls-2" d="M529.84,160.9c-4.43-1.39-12.87-3.74-18.55-3.74-7.33,0-16.61,4.16-16.61,16.05s9.28,16.48,16.61,16.48c5.68,0,13.85-2.36,19.66-4.15v19.1c-5.54,1.93-12.32,4.43-23.25,4.43-32.81,0-38.62-25.33-38.62-35.86s5.81-35.43,38.62-35.43a57.16,57.16,0,0,1,22.14,4Z"/><path class="cls-2" d="M567.08,114.12v34.74c8.58-9.14,16.61-11.07,24.36-11.07,14.94,0,24.77,7.88,24.77,27.81v42.22H591.86V172.11c0-.55,1.79-15.5-10-15.5-7.2,0-12,6.64-14.81,10.8v40.41H542.72v-93.7Z"/><path class="cls-1" d="M78.55,288.57h18.7v4.59H78.55Zm-2.3-29.81h4.59v34.4H76.25Z"/><path class="cls-1" d="M102.19,268.6h4.59v24.56h-4.59Zm0-9.84h4.59v4.83h-4.59Z"/><path class="cls-1" d="M121.57,303.15a10.45,10.45,0,0,1-4.71-1,7.69,7.69,0,0,1-3.22-2.9l3.1-3a6.48,6.48,0,0,0,2.14,2,5.19,5.19,0,0,0,2.62.71,5.3,5.3,0,0,0,4.07-1.52,6.06,6.06,0,0,0,1.44-4.32V268.6h4.59v23.83c0,3.41-.88,6.05-2.62,7.91a9.66,9.66,0,0,1-7.41,2.81m-.43-9.56a7.19,7.19,0,0,1-6-2.62q-2.12-2.61-2.11-7.37v-5.42c0-3.18.69-5.65,2.06-7.39a7,7,0,0,1,5.79-2.61,6.71,6.71,0,0,1,3.79,1.13,8.22,8.22,0,0,1,2.77,3.2l-.47,5a6.05,6.05,0,0,0-.54-2.67,3.77,3.77,0,0,0-1.56-1.69,4.93,4.93,0,0,0-2.49-.58,4.3,4.3,0,0,0-3.51,1.49,6.35,6.35,0,0,0-1.25,4.19v5.34a6.16,6.16,0,0,0,1.25,4.13,4.37,4.37,0,0,0,3.51,1.46,4.74,4.74,0,0,0,2.49-.61,3.89,3.89,0,0,0,1.56-1.74,6.25,6.25,0,0,0,.54-2.72l.32,5.19a7.45,7.45,0,0,1-2.17,3,6,6,0,0,1-4,1.31"/><path class="cls-1" d="M152.73,293.16V278.28a5.84,5.84,0,0,0-1.27-4,4.58,4.58,0,0,0-3.61-1.42,4.28,4.28,0,0,0-4.7,4.71l-.47-4.74a8.66,8.66,0,0,1,2.82-3.37,6.71,6.71,0,0,1,3.85-1.19,7.07,7.07,0,0,1,5.88,2.61q2.09,2.61,2.08,7.4v14.9Zm-14.16-34.4h4.58v34.4h-4.58Z"/><path class="cls-1" d="M170.35,293.28a4.93,4.93,0,0,1-4.17-1.68,7.8,7.8,0,0,1-1.29-4.83V261.45h4.58v25.37a2.35,2.35,0,0,0,.34,1.37,1.11,1.11,0,0,0,1,.5H173v4.59Zm-7.87-24.68H173V273H162.48Z"/><path class="cls-1" d="M196.85,261.57h4.59v31.59h-4.59Zm-9.24-2.81h23.07v4.59H187.61Z"/><path class="cls-1" d="M220.9,293.52c-3.25,0-5.77-1-7.55-2.86s-2.67-4.63-2.67-8.14v-2.77c0-3.66.85-6.49,2.57-8.5a9,9,0,0,1,7.25-3,7.86,7.86,0,0,1,6.82,3.4c1.61,2.28,2.42,5.46,2.42,9.56v1.61H214v-3.88h11.38a8.66,8.66,0,0,0-1.47-4.66,4.07,4.07,0,0,0-3.41-1.68,4.86,4.86,0,0,0-4,1.8,8,8,0,0,0-1.44,5.09v3.12a6.52,6.52,0,0,0,1.54,4.68,5.64,5.64,0,0,0,4.32,1.64,7,7,0,0,0,2.77-.59,8.11,8.11,0,0,0,2.45-1.66l3,3.17a12.58,12.58,0,0,1-3.89,2.71,10.58,10.58,0,0,1-4.34,1"/><path class="cls-1" d="M245.45,293.52c-3.2,0-5.69-.93-7.45-2.79s-2.64-4.49-2.64-7.88V278.8q0-5,2.64-7.8c1.76-1.83,4.25-2.75,7.45-2.75a11.8,11.8,0,0,1,5,1,8.42,8.42,0,0,1,3.5,2.91l-3.3,3.13a6.67,6.67,0,0,0-2.29-1.82,6.33,6.33,0,0,0-2.79-.64,5.34,5.34,0,0,0-4.11,1.56,6.17,6.17,0,0,0-1.47,4.4v4.05a6.34,6.34,0,0,0,1.47,4.49,5.29,5.29,0,0,0,4.11,1.59,6,6,0,0,0,2.79-.69,6.93,6.93,0,0,0,2.29-1.94l3.3,3.36a8.47,8.47,0,0,1-3.51,2.85,11.82,11.82,0,0,1-4.94,1"/><path class="cls-1" d="M273.12,293.16V278.28a5.79,5.79,0,0,0-1.27-4,4.56,4.56,0,0,0-3.6-1.42,4.27,4.27,0,0,0-4.7,4.71l-.47-4.74a8.49,8.49,0,0,1,2.82-3.37,6.69,6.69,0,0,1,3.85-1.19,7.1,7.1,0,0,1,5.88,2.61q2.08,2.61,2.08,7.4v14.9ZM259,258.76h4.59v34.4H259Z"/><path class="cls-1" d="M298.84,293.16V278.28a5.79,5.79,0,0,0-1.27-4,4.58,4.58,0,0,0-3.61-1.42,4.64,4.64,0,0,0-3.47,1.25,4.83,4.83,0,0,0-1.23,3.53l-.47-4.74a8.72,8.72,0,0,1,2.82-3.43,6.66,6.66,0,0,1,3.86-1.2,7.1,7.1,0,0,1,5.88,2.61q2.07,2.61,2.07,7.4v14.9ZM284.68,268.6h4.58v24.56h-4.58Z"/><path class="cls-1" d="M319.34,288.93a4.57,4.57,0,0,0,3.72-1.59,6.75,6.75,0,0,0,1.32-4.45v-4.07a6.64,6.64,0,0,0-1.32-4.42,5.2,5.2,0,0,0-7.43,0,6.65,6.65,0,0,0-1.33,4.42v4.07a6.75,6.75,0,0,0,1.33,4.45,4.57,4.57,0,0,0,3.71,1.59m0,4.59a9,9,0,0,1-7.1-2.81q-2.52-2.81-2.52-7.89v-4q0-5,2.52-7.8a10.48,10.48,0,0,1,14.2,0q2.52,2.76,2.52,7.8v4.07c0,3.38-.84,6-2.52,7.85a9.1,9.1,0,0,1-7.1,2.78"/><path class="cls-1" d="M340.07,258.76v28.06a2.21,2.21,0,0,0,.37,1.37,1.21,1.21,0,0,0,1,.5h2.16v4.59h-2.7a5,5,0,0,1-4-1.7,7.25,7.25,0,0,1-1.44-4.81v-28Z"/><path class="cls-1" d="M357.76,288.93a4.57,4.57,0,0,0,3.72-1.59,6.8,6.8,0,0,0,1.31-4.45v-4.07a6.7,6.7,0,0,0-1.31-4.42,5.2,5.2,0,0,0-7.43,0,6.59,6.59,0,0,0-1.33,4.42v4.07a6.7,6.7,0,0,0,1.33,4.45,4.56,4.56,0,0,0,3.71,1.59m0,4.59a9.07,9.07,0,0,1-7.11-2.81q-2.5-2.81-2.51-7.89v-4q0-5,2.51-7.8a10.5,10.5,0,0,1,14.21,0q2.52,2.76,2.52,7.8v4.07c0,3.38-.84,6-2.52,7.85a9.11,9.11,0,0,1-7.1,2.78"/><path class="cls-1" d="M381.72,303.15a10.45,10.45,0,0,1-4.71-1,7.71,7.71,0,0,1-3.23-2.9l3.11-3a6.48,6.48,0,0,0,2.14,2,5.19,5.19,0,0,0,2.62.71,5.3,5.3,0,0,0,4.07-1.52,6.06,6.06,0,0,0,1.44-4.32V268.6h4.58v23.83q0,5.11-2.61,7.91a9.66,9.66,0,0,1-7.41,2.81m-.43-9.56a7.18,7.18,0,0,1-6-2.62q-2.11-2.61-2.11-7.37v-5.42c0-3.18.69-5.65,2.06-7.39a7,7,0,0,1,5.79-2.61,6.71,6.71,0,0,1,3.79,1.13,8.22,8.22,0,0,1,2.77,3.2l-.47,5a6.05,6.05,0,0,0-.54-2.67,3.77,3.77,0,0,0-1.56-1.69,5,5,0,0,0-2.49-.58,4.3,4.3,0,0,0-3.51,1.49,6.29,6.29,0,0,0-1.25,4.19v5.34a6.1,6.1,0,0,0,1.25,4.13,4.37,4.37,0,0,0,3.51,1.46,4.76,4.76,0,0,0,2.49-.61,3.89,3.89,0,0,0,1.56-1.74,6.25,6.25,0,0,0,.54-2.72l.31,5.19a7.42,7.42,0,0,1-2.16,3,6,6,0,0,1-4,1.31"/><path class="cls-1" d="M398.71,268.6h4.59v24.56h-4.59Zm0-9.84h4.59v4.83h-4.59Z"/><path class="cls-1" d="M419.82,293.52c-3.25,0-5.77-1-7.55-2.86s-2.68-4.63-2.68-8.14v-2.77q0-5.49,2.58-8.5a9,9,0,0,1,7.24-3,7.88,7.88,0,0,1,6.83,3.4c1.61,2.28,2.42,5.46,2.42,9.56v1.61H412.92v-3.88h11.37a8.5,8.5,0,0,0-1.47-4.66,4.06,4.06,0,0,0-3.41-1.68,4.86,4.86,0,0,0-4,1.8,8,8,0,0,0-1.44,5.09v3.12a6.57,6.57,0,0,0,1.54,4.68,5.67,5.67,0,0,0,4.33,1.64,7,7,0,0,0,2.77-.59,8.11,8.11,0,0,0,2.45-1.66l3,3.17a12.7,12.7,0,0,1-3.89,2.71,10.58,10.58,0,0,1-4.34,1"/><path class="cls-1" d="M443.2,293.52a15.72,15.72,0,0,1-5.63-1,13.36,13.36,0,0,1-4.53-2.87l2.72-3.53a15.5,15.5,0,0,0,3.76,2.27,9.63,9.63,0,0,0,3.68.76,7.58,7.58,0,0,0,4.08-.89,3,3,0,0,0,1.36-2.66,2.11,2.11,0,0,0-.91-1.94,5.81,5.81,0,0,0-2.38-.75c-1-.12-2-.21-3.16-.29-.95-.08-1.88-.2-2.81-.37a7.61,7.61,0,0,1-2.54-.9,4.64,4.64,0,0,1-1.84-1.93,7.35,7.35,0,0,1-.68-3.43q0-3.9,2.27-5.84c1.51-1.3,3.77-1.94,6.77-1.94a16.22,16.22,0,0,1,5.1.78,14.59,14.59,0,0,1,4.43,2.39l-2.77,3.52a14.88,14.88,0,0,0-3.45-1.77,9.9,9.9,0,0,0-3.31-.59,6,6,0,0,0-3.51.84,2.9,2.9,0,0,0-1.17,2.52,1.73,1.73,0,0,0,.81,1.6,5.22,5.22,0,0,0,2.14.62c.88.1,1.83.18,2.85.26s2,.18,3,.34a8.56,8.56,0,0,1,2.75,1,5.28,5.28,0,0,1,2,2.11,8,8,0,0,1,.77,3.81,7.15,7.15,0,0,1-2.44,5.91q-2.44,2-7.34,2"/><path class="cls-1" d="M482.33,293.52a11,11,0,0,1-6-1.6,10.65,10.65,0,0,1-4-4.48,15.08,15.08,0,0,1-1.42-6.75v-9.44a15.06,15.06,0,0,1,1.42-6.76,10.68,10.68,0,0,1,4-4.49,11.08,11.08,0,0,1,6-1.6,10.73,10.73,0,0,1,5.19,1.28,11.35,11.35,0,0,1,3.93,3.57,13.65,13.65,0,0,1,2.15,5.38h-4.7a7.58,7.58,0,0,0-1.43-2.9,7.22,7.22,0,0,0-2.35-1.93,6.06,6.06,0,0,0-2.79-.69,6,6,0,0,0-4.84,2.24,9,9,0,0,0-1.83,5.9v9.44a9,9,0,0,0,1.83,5.89,6,6,0,0,0,4.84,2.23,6.56,6.56,0,0,0,4-1.42,7,7,0,0,0,2.54-4.09h4.7a13.68,13.68,0,0,1-2.16,5.37,11.53,11.53,0,0,1-3.93,3.57,10.66,10.66,0,0,1-5.18,1.28"/><path class="cls-1" d="M508.61,288.93a4.54,4.54,0,0,0,3.72-1.59,6.75,6.75,0,0,0,1.32-4.45v-4.07a6.64,6.64,0,0,0-1.32-4.42,5.2,5.2,0,0,0-7.43,0,6.64,6.64,0,0,0-1.32,4.42v4.07a6.75,6.75,0,0,0,1.32,4.45,4.57,4.57,0,0,0,3.71,1.59m0,4.59a9,9,0,0,1-7.1-2.81Q499,287.9,499,282.82v-4q0-5,2.52-7.8a10.5,10.5,0,0,1,14.21,0q2.5,2.76,2.51,7.8v4.07c0,3.38-.84,6-2.51,7.85a9.12,9.12,0,0,1-7.11,2.78"/><rect class="cls-1" x="523.07" y="288.1" width="4.81" height="5.06"/><path class="cls-1" d="M549.39,288.57h18.7v4.59h-18.7Zm-2.29-29.81h4.58v34.4H547.1Z"/><path class="cls-1" d="M579.11,293.28a4.93,4.93,0,0,1-4.17-1.68,7.74,7.74,0,0,1-1.3-4.83V261.45h4.59v25.37a2.35,2.35,0,0,0,.34,1.37,1.11,1.11,0,0,0,1,.5h2.2v4.59Zm-7.87-24.68h10.52V273H571.24Z"/><path class="cls-1" d="M601.31,258.76h4.59v34.4h-4.59Zm-5.86,34.83a7.2,7.2,0,0,1-6-2.62q-2.1-2.61-2.1-7.37v-5.42c0-3.18.68-5.65,2-7.39a7,7,0,0,1,5.79-2.61,6.71,6.71,0,0,1,3.79,1.13,8.24,8.24,0,0,1,2.78,3.2l-.48,5a6.05,6.05,0,0,0-.54-2.67,3.71,3.71,0,0,0-1.56-1.69,4.92,4.92,0,0,0-2.48-.58,4.31,4.31,0,0,0-3.52,1.49,6.35,6.35,0,0,0-1.25,4.19v5.34a6.16,6.16,0,0,0,1.25,4.13,4.38,4.38,0,0,0,3.52,1.46,4.73,4.73,0,0,0,2.48-.61,3.84,3.84,0,0,0,1.56-1.74,6.25,6.25,0,0,0,.54-2.72l.32,5.19a7.35,7.35,0,0,1-2.17,3,6,6,0,0,1-4,1.31"/><rect class="cls-1" x="612.08" y="288.1" width="4.81" height="5.06"/></svg>