<?xml version="1.0" encoding="UTF-8"?>
<svg id="Layer_1" xmlns="http://www.w3.org/2000/svg" version="1.1" xmlns:xlink="http://www.w3.org/1999/xlink" viewBox="0 0 283.46 283.46">
  <!-- Generator: Adobe Illustrator 29.6.1, SVG Export Plug-In . SVG Version: 2.1.1 Build 9)  -->
  <defs>
    <style>
      .st0 {
        fill: url(#linear-gradient2);
      }

      .st1 {
        fill: none;
        stroke: #213974;
        stroke-miterlimit: 10;
        stroke-width: 1.34px;
      }

      .st2 {
        fill: url(#linear-gradient1);
      }

      .st3 {
        fill: #1c3c6f;
      }

      .st4 {
        fill: #0c4a93;
      }

      .st5 {
        fill: url(#linear-gradient);
      }

      .st6 {
        clip-path: url(#clippath);
      }
    </style>
    <linearGradient id="linear-gradient" x1="112.67" y1="220.19" x2="171.46" y2="220.19" gradientUnits="userSpaceOnUse">
      <stop offset="0" stop-color="#2f5495"/>
      <stop offset="1" stop-color="#203462"/>
    </linearGradient>
    <linearGradient id="linear-gradient1" y1="235.02" y2="235.02" xlink:href="#linear-gradient"/>
    <linearGradient id="linear-gradient2" x1="128.29" y1="251.76" x2="155.57" y2="251.76" xlink:href="#linear-gradient"/>
    <clipPath id="clippath">
      <path class="st1" d="M155.41,24.22c-8.36-1.48-17.23-1.58-25.64-.29-35.98,5.51-62.09,34.6-62.09,69.17,0,25.6,10.77,41.43,21.18,56.74,9.55,14.04,18.56,27.3,20.23,48.23.51,6.42,6.23,11.44,13.02,11.44h39.2c6.79,0,12.51-5.03,13.02-11.44,1.66-20.93,10.68-34.19,20.23-48.23,10.41-15.31,21.18-31.14,21.18-56.74,0-33.72-25.37-62.69-60.32-68.88Z"/>
    </clipPath>
  </defs>
  <path class="st5" d="M166.48,215.46h-48.82c-2.76,0-4.99,2.11-4.99,4.72s2.23,4.72,4.99,4.72h48.82c2.75,0,4.99-2.11,4.99-4.72s-2.23-4.72-4.99-4.72Z"/>
  <path class="st2" d="M166.48,230.3h-48.82c-2.76,0-4.99,2.11-4.99,4.72s2.23,4.72,4.99,4.72h48.82c2.75,0,4.99-2.11,4.99-4.72s-2.23-4.72-4.99-4.72Z"/>
  <path class="st0" d="M153.63,245.33h-23.41c-1.21,0-2.13,1.04-1.9,2.17,1.2,6.09,6.83,10.69,13.61,10.69s12.41-4.61,13.61-10.69c.22-1.12-.69-2.17-1.9-2.17Z"/>
  <g>
    <g class="st6">
      <g>
        <polygon class="st3" points="140.02 66.18 140.02 55.68 139.4 55.68 135.71 55.68 135.71 46.48 127.09 46.48 127.09 55.68 123.39 55.68 122.78 55.68 122.78 66.18 116.01 66.18 116.01 227.06 146.79 227.06 146.79 66.18 140.02 66.18"/>
        <polygon class="st3" points="187.39 100.86 169.56 75.25 151.74 100.86 151.71 100.86 151.71 209 187.42 209 187.42 100.86 187.39 100.86"/>
        <rect class="st4" x="128.01" y="124.18" width="44.94" height="104.06"/>
        <rect class="st3" x="83.07" y="89.79" width="23.7" height="126.79"/>
        <rect class="st3" x="192.03" y="118.64" width="23.7" height="126.79"/>
        <polygon class="st4" points="111.08 113.66 111.08 124.76 104.31 124.76 104.31 136.13 97.85 136.13 97.85 218.03 123.09 218.03 123.09 206.67 123.09 195.56 123.09 136.13 123.09 124.76 123.09 113.66 111.08 113.66"/>
        <rect class="st4" x="181.88" y="111.65" width="16.31" height="126.79"/>
        <rect class="st4" x="71.38" y="130.88" width="18.16" height="104.06"/>
        <g>
          <g>
            <rect class="st3" x="183.75" y="113.89" width="2.72" height="2.89"/>
            <rect class="st3" x="183.75" y="119.83" width="2.72" height="2.89"/>
            <rect class="st3" x="183.75" y="125.78" width="2.72" height="2.89"/>
            <rect class="st3" x="183.75" y="131.73" width="2.72" height="2.89"/>
            <rect class="st3" x="183.75" y="137.68" width="2.72" height="2.89"/>
            <rect class="st3" x="183.75" y="143.63" width="2.72" height="2.89"/>
            <rect class="st3" x="183.75" y="149.58" width="2.72" height="2.89"/>
            <rect class="st3" x="183.75" y="155.52" width="2.72" height="2.89"/>
            <rect class="st3" x="183.75" y="161.47" width="2.72" height="2.89"/>
            <rect class="st3" x="183.75" y="167.42" width="2.72" height="2.89"/>
            <rect class="st3" x="183.75" y="173.37" width="2.72" height="2.89"/>
            <rect class="st3" x="183.75" y="179.32" width="2.72" height="2.89"/>
            <rect class="st3" x="183.75" y="185.27" width="2.72" height="2.89"/>
            <rect class="st3" x="183.75" y="191.22" width="2.72" height="2.89"/>
            <rect class="st3" x="183.75" y="197.16" width="2.72" height="2.89"/>
            <rect class="st3" x="183.75" y="203.11" width="2.72" height="2.89"/>
            <rect class="st3" x="183.75" y="209.06" width="2.72" height="2.89"/>
          </g>
          <g>
            <rect class="st3" x="188.67" y="113.89" width="2.72" height="2.89"/>
            <rect class="st3" x="188.67" y="119.83" width="2.72" height="2.89"/>
            <rect class="st3" x="188.67" y="125.78" width="2.72" height="2.89"/>
            <rect class="st3" x="188.67" y="131.73" width="2.72" height="2.89"/>
            <rect class="st3" x="188.67" y="137.68" width="2.72" height="2.89"/>
            <rect class="st3" x="188.67" y="143.63" width="2.72" height="2.89"/>
            <rect class="st3" x="188.67" y="149.58" width="2.72" height="2.89"/>
            <rect class="st3" x="188.67" y="155.52" width="2.72" height="2.89"/>
            <rect class="st3" x="188.67" y="161.47" width="2.72" height="2.89"/>
            <rect class="st3" x="188.67" y="167.42" width="2.72" height="2.89"/>
            <rect class="st3" x="188.67" y="173.37" width="2.72" height="2.89"/>
            <rect class="st3" x="188.67" y="179.32" width="2.72" height="2.89"/>
            <rect class="st3" x="188.67" y="185.27" width="2.72" height="2.89"/>
            <rect class="st3" x="188.67" y="191.22" width="2.72" height="2.89"/>
            <rect class="st3" x="188.67" y="197.16" width="2.72" height="2.89"/>
            <rect class="st3" x="188.67" y="203.11" width="2.72" height="2.89"/>
            <rect class="st3" x="188.67" y="209.06" width="2.72" height="2.89"/>
          </g>
          <g>
            <rect class="st3" x="193.6" y="113.89" width="2.72" height="2.89"/>
            <rect class="st3" x="193.6" y="119.83" width="2.72" height="2.89"/>
            <rect class="st3" x="193.6" y="125.78" width="2.72" height="2.89"/>
            <rect class="st3" x="193.6" y="131.73" width="2.72" height="2.89"/>
            <rect class="st3" x="193.6" y="137.68" width="2.72" height="2.89"/>
            <rect class="st3" x="193.6" y="143.63" width="2.72" height="2.89"/>
            <rect class="st3" x="193.6" y="149.58" width="2.72" height="2.89"/>
            <rect class="st3" x="193.6" y="155.52" width="2.72" height="2.89"/>
            <rect class="st3" x="193.6" y="161.47" width="2.72" height="2.89"/>
            <rect class="st3" x="193.6" y="167.42" width="2.72" height="2.89"/>
            <rect class="st3" x="193.6" y="173.37" width="2.72" height="2.89"/>
            <rect class="st3" x="193.6" y="179.32" width="2.72" height="2.89"/>
            <rect class="st3" x="193.6" y="185.27" width="2.72" height="2.89"/>
            <rect class="st3" x="193.6" y="191.22" width="2.72" height="2.89"/>
            <rect class="st3" x="193.6" y="197.16" width="2.72" height="2.89"/>
            <rect class="st3" x="193.6" y="203.11" width="2.72" height="2.89"/>
            <rect class="st3" x="193.6" y="209.06" width="2.72" height="2.89"/>
          </g>
        </g>
        <g>
          <g>
            <rect class="st3" x="132.74" y="127.55" width="6.96" height="2.89"/>
            <rect class="st3" x="142.25" y="127.55" width="6.96" height="2.89"/>
            <rect class="st3" x="151.75" y="127.55" width="6.96" height="2.89"/>
            <rect class="st3" x="161.26" y="127.55" width="6.96" height="2.89"/>
          </g>
          <g>
            <rect class="st3" x="132.74" y="134.79" width="6.96" height="2.89"/>
            <rect class="st3" x="142.25" y="134.79" width="6.96" height="2.89"/>
            <rect class="st3" x="151.75" y="134.79" width="6.96" height="2.89"/>
            <rect class="st3" x="161.26" y="134.79" width="6.96" height="2.89"/>
          </g>
          <g>
            <rect class="st3" x="132.74" y="142.02" width="6.96" height="2.89"/>
            <rect class="st3" x="142.25" y="142.02" width="6.96" height="2.89"/>
            <rect class="st3" x="151.75" y="142.02" width="6.96" height="2.89"/>
            <rect class="st3" x="161.26" y="142.02" width="6.96" height="2.89"/>
          </g>
          <g>
            <rect class="st3" x="132.74" y="149.25" width="6.96" height="2.89"/>
            <rect class="st3" x="142.25" y="149.25" width="6.96" height="2.89"/>
            <rect class="st3" x="151.75" y="149.25" width="6.96" height="2.89"/>
            <rect class="st3" x="161.26" y="149.25" width="6.96" height="2.89"/>
          </g>
          <g>
            <rect class="st3" x="132.74" y="156.49" width="6.96" height="2.89"/>
            <rect class="st3" x="142.25" y="156.49" width="6.96" height="2.89"/>
            <rect class="st3" x="151.75" y="156.49" width="6.96" height="2.89"/>
            <rect class="st3" x="161.26" y="156.49" width="6.96" height="2.89"/>
          </g>
          <g>
            <rect class="st3" x="132.74" y="163.72" width="6.96" height="2.89"/>
            <rect class="st3" x="142.25" y="163.72" width="6.96" height="2.89"/>
            <rect class="st3" x="151.75" y="163.72" width="6.96" height="2.89"/>
            <rect class="st3" x="161.26" y="163.72" width="6.96" height="2.89"/>
          </g>
          <g>
            <rect class="st3" x="132.74" y="170.96" width="6.96" height="2.89"/>
            <rect class="st3" x="142.25" y="170.96" width="6.96" height="2.89"/>
            <rect class="st3" x="151.75" y="170.96" width="6.96" height="2.89"/>
            <rect class="st3" x="161.26" y="170.96" width="6.96" height="2.89"/>
          </g>
          <g>
            <rect class="st3" x="132.74" y="178.19" width="6.96" height="2.89"/>
            <rect class="st3" x="142.25" y="178.19" width="6.96" height="2.89"/>
            <rect class="st3" x="151.75" y="178.19" width="6.96" height="2.89"/>
            <rect class="st3" x="161.26" y="178.19" width="6.96" height="2.89"/>
          </g>
          <g>
            <rect class="st3" x="132.74" y="185.43" width="6.96" height="2.89"/>
            <rect class="st3" x="142.25" y="185.43" width="6.96" height="2.89"/>
            <rect class="st3" x="151.75" y="185.43" width="6.96" height="2.89"/>
            <rect class="st3" x="161.26" y="185.43" width="6.96" height="2.89"/>
          </g>
          <g>
            <rect class="st3" x="132.74" y="192.66" width="6.96" height="2.89"/>
            <rect class="st3" x="142.25" y="192.66" width="6.96" height="2.89"/>
            <rect class="st3" x="151.75" y="192.66" width="6.96" height="2.89"/>
            <rect class="st3" x="161.26" y="192.66" width="6.96" height="2.89"/>
          </g>
          <g>
            <rect class="st3" x="132.74" y="199.9" width="6.96" height="2.89"/>
            <rect class="st3" x="142.25" y="199.9" width="6.96" height="2.89"/>
            <rect class="st3" x="151.75" y="199.9" width="6.96" height="2.89"/>
            <rect class="st3" x="161.26" y="199.9" width="6.96" height="2.89"/>
          </g>
          <g>
            <rect class="st3" x="132.74" y="207.13" width="6.96" height="2.89"/>
            <rect class="st3" x="142.25" y="207.13" width="6.96" height="2.89"/>
            <rect class="st3" x="151.75" y="207.13" width="6.96" height="2.89"/>
            <rect class="st3" x="161.26" y="207.13" width="6.96" height="2.89"/>
          </g>
          <g>
            <rect class="st3" x="132.74" y="214.36" width="6.96" height="2.89"/>
            <rect class="st3" x="142.25" y="214.36" width="6.96" height="2.89"/>
            <rect class="st3" x="151.75" y="214.36" width="6.96" height="2.89"/>
            <rect class="st3" x="161.26" y="214.36" width="6.96" height="2.89"/>
          </g>
          <g>
            <rect class="st3" x="132.74" y="221.6" width="6.96" height="2.89"/>
            <rect class="st3" x="142.25" y="221.6" width="6.96" height="2.89"/>
            <rect class="st3" x="151.75" y="221.6" width="6.96" height="2.89"/>
            <rect class="st3" x="161.26" y="221.6" width="6.96" height="2.89"/>
          </g>
        </g>
        <g>
          <g>
            <rect class="st3" x="100.32" y="137.81" width="2.23" height="2.86"/>
            <rect class="st3" x="106.34" y="137.81" width="2.23" height="2.86"/>
            <rect class="st3" x="112.36" y="137.81" width="2.23" height="2.86"/>
            <rect class="st3" x="118.39" y="137.81" width="2.23" height="2.86"/>
          </g>
          <g>
            <rect class="st3" x="100.32" y="142.7" width="2.23" height="2.86"/>
            <rect class="st3" x="106.34" y="142.7" width="2.23" height="2.86"/>
            <rect class="st3" x="112.36" y="142.7" width="2.23" height="2.86"/>
            <rect class="st3" x="118.39" y="142.7" width="2.23" height="2.86"/>
          </g>
          <g>
            <rect class="st3" x="100.32" y="147.58" width="2.23" height="2.86"/>
            <rect class="st3" x="106.34" y="147.58" width="2.23" height="2.86"/>
            <rect class="st3" x="112.36" y="147.58" width="2.23" height="2.86"/>
            <rect class="st3" x="118.39" y="147.58" width="2.23" height="2.86"/>
          </g>
          <g>
            <rect class="st3" x="100.32" y="152.47" width="2.23" height="2.86"/>
            <rect class="st3" x="106.34" y="152.47" width="2.23" height="2.86"/>
            <rect class="st3" x="112.36" y="152.47" width="2.23" height="2.86"/>
            <rect class="st3" x="118.39" y="152.47" width="2.23" height="2.86"/>
          </g>
          <g>
            <rect class="st3" x="100.32" y="157.35" width="2.23" height="2.86"/>
            <rect class="st3" x="106.34" y="157.35" width="2.23" height="2.86"/>
            <rect class="st3" x="112.36" y="157.35" width="2.23" height="2.86"/>
            <rect class="st3" x="118.39" y="157.35" width="2.23" height="2.86"/>
          </g>
          <g>
            <rect class="st3" x="100.32" y="162.24" width="2.23" height="2.86"/>
            <rect class="st3" x="106.34" y="162.24" width="2.23" height="2.86"/>
            <rect class="st3" x="112.36" y="162.24" width="2.23" height="2.86"/>
            <rect class="st3" x="118.39" y="162.24" width="2.23" height="2.86"/>
          </g>
          <g>
            <rect class="st3" x="100.32" y="167.12" width="2.23" height="2.86"/>
            <rect class="st3" x="106.34" y="167.12" width="2.23" height="2.86"/>
            <rect class="st3" x="112.36" y="167.12" width="2.23" height="2.86"/>
            <rect class="st3" x="118.39" y="167.12" width="2.23" height="2.86"/>
          </g>
          <g>
            <rect class="st3" x="100.32" y="172.01" width="2.23" height="2.86"/>
            <rect class="st3" x="106.34" y="172.01" width="2.23" height="2.86"/>
            <rect class="st3" x="112.36" y="172.01" width="2.23" height="2.86"/>
            <rect class="st3" x="118.39" y="172.01" width="2.23" height="2.86"/>
          </g>
          <g>
            <rect class="st3" x="100.32" y="176.89" width="2.23" height="2.86"/>
            <rect class="st3" x="106.34" y="176.89" width="2.23" height="2.86"/>
            <rect class="st3" x="112.36" y="176.89" width="2.23" height="2.86"/>
            <rect class="st3" x="118.39" y="176.89" width="2.23" height="2.86"/>
          </g>
          <g>
            <rect class="st3" x="100.32" y="181.78" width="2.23" height="2.86"/>
            <rect class="st3" x="106.34" y="181.78" width="2.23" height="2.86"/>
            <rect class="st3" x="112.36" y="181.78" width="2.23" height="2.86"/>
            <rect class="st3" x="118.39" y="181.78" width="2.23" height="2.86"/>
          </g>
          <g>
            <rect class="st3" x="100.32" y="186.66" width="2.23" height="2.86"/>
            <rect class="st3" x="106.34" y="186.66" width="2.23" height="2.86"/>
            <rect class="st3" x="112.36" y="186.66" width="2.23" height="2.86"/>
            <rect class="st3" x="118.39" y="186.66" width="2.23" height="2.86"/>
          </g>
          <g>
            <rect class="st3" x="100.32" y="191.55" width="2.23" height="2.86"/>
            <rect class="st3" x="106.34" y="191.55" width="2.23" height="2.86"/>
            <rect class="st3" x="112.36" y="191.55" width="2.23" height="2.86"/>
            <rect class="st3" x="118.39" y="191.55" width="2.23" height="2.86"/>
          </g>
          <g>
            <rect class="st3" x="100.32" y="196.44" width="2.23" height="2.86"/>
            <rect class="st3" x="106.34" y="196.44" width="2.23" height="2.86"/>
            <rect class="st3" x="112.36" y="196.44" width="2.23" height="2.86"/>
            <rect class="st3" x="118.39" y="196.44" width="2.23" height="2.86"/>
          </g>
          <g>
            <rect class="st3" x="100.32" y="201.32" width="2.23" height="2.86"/>
            <rect class="st3" x="106.34" y="201.32" width="2.23" height="2.86"/>
            <rect class="st3" x="112.36" y="201.32" width="2.23" height="2.86"/>
            <rect class="st3" x="118.39" y="201.32" width="2.23" height="2.86"/>
          </g>
          <g>
            <rect class="st3" x="100.32" y="206.21" width="2.23" height="2.86"/>
            <rect class="st3" x="106.34" y="206.21" width="2.23" height="2.86"/>
            <rect class="st3" x="112.36" y="206.21" width="2.23" height="2.86"/>
            <rect class="st3" x="118.39" y="206.21" width="2.23" height="2.86"/>
          </g>
          <g>
            <rect class="st3" x="100.32" y="211.09" width="2.23" height="2.86"/>
            <rect class="st3" x="106.34" y="211.09" width="2.23" height="2.86"/>
            <rect class="st3" x="112.36" y="211.09" width="2.23" height="2.86"/>
            <rect class="st3" x="118.39" y="211.09" width="2.23" height="2.86"/>
          </g>
        </g>
        <g>
          <rect class="st3" x="86.37" y="133.15" width=".9" height="100.01"/>
          <rect class="st3" x="83.83" y="133.15" width=".9" height="100.01"/>
          <rect class="st3" x="81.28" y="133.15" width=".9" height="100.01"/>
          <rect class="st3" x="78.73" y="133.15" width=".9" height="100.01"/>
          <rect class="st3" x="76.19" y="133.15" width=".9" height="100.01"/>
          <rect class="st3" x="73.64" y="133.15" width=".9" height="100.01"/>
        </g>
      </g>
    </g>
    <path class="st1" d="M155.41,24.22c-8.36-1.48-17.23-1.58-25.64-.29-35.98,5.51-62.09,34.6-62.09,69.17,0,25.6,10.77,41.43,21.18,56.74,9.55,14.04,18.56,27.3,20.23,48.23.51,6.42,6.23,11.44,13.02,11.44h39.2c6.79,0,12.51-5.03,13.02-11.44,1.66-20.93,10.68-34.19,20.23-48.23,10.41-15.31,21.18-31.14,21.18-56.74,0-33.72-25.37-62.69-60.32-68.88Z"/>
  </g>
</svg>