<?xml version="1.0" encoding="UTF-8"?>
<svg id="Layer_1" xmlns="http://www.w3.org/2000/svg" version="1.1" xmlns:xlink="http://www.w3.org/1999/xlink" viewBox="0 0 283.46 283.46">
  <!-- Generator: Adobe Illustrator 29.6.1, SVG Export Plug-In . SVG Version: 2.1.1 Build 9)  -->
  <defs>
    <style>
      .st0 {
        fill: url(#linear-gradient);
      }
    </style>
    <linearGradient id="linear-gradient" x1="69.18" y1="141.73" x2="214.28" y2="141.73" gradientUnits="userSpaceOnUse">
      <stop offset="0" stop-color="#2f5495"/>
      <stop offset="1" stop-color="#203462"/>
    </linearGradient>
  </defs>
  <path class="st0" d="M184.93,173.32c-5.11,6.13-11.06,11.1-20.04,11.68-5.33-1.75-10.95-2.91-15.91-5.39-22.4-11.14-39.07-27.89-48.21-51.49-4.22-10.91.05-23.12,10.14-29.2,1.16-.71,3.92-.39,4.93.54,5.15,4.73,9.99,9.79,14.91,14.78,1.88,1.92,1.56,3.88-.21,5.69-2.54,2.59-5.17,5.12-7.67,7.74-3.69,3.87-3.91,7.23-.74,11.51,6.55,8.84,14.39,16.37,23.27,22.82,3.88,2.81,7.48,2.57,10.93-.71,2.63-2.5,5.1-5.17,7.67-7.74,1.95-1.97,3.94-2.1,5.97-.08,4.85,4.86,9.88,9.56,14.48,14.65.98,1.08,1.31,4.22.5,5.2M141.73,69.18c-40.05,0-72.55,32.5-72.55,72.54s32.5,72.55,72.55,72.55,72.55-32.43,72.55-72.55-32.49-72.54-72.55-72.54"/>
</svg>