<?xml version="1.0" encoding="UTF-8"?>
<svg id="Layer_1" xmlns="http://www.w3.org/2000/svg" version="1.1" xmlns:xlink="http://www.w3.org/1999/xlink" viewBox="0 0 283.46 283.46">
  <!-- Generator: Adobe Illustrator 29.6.1, SVG Export Plug-In . SVG Version: 2.1.1 Build 9)  -->
  <defs>
    <style>
      .st0 {
        fill: url(#linear-gradient2);
      }

      .st1 {
        fill: url(#linear-gradient1);
      }

      .st2 {
        fill: url(#linear-gradient3);
      }

      .st3 {
        fill: url(#linear-gradient);
      }
    </style>
    <linearGradient id="linear-gradient" x1="46.95" y1="141.73" x2="236.51" y2="141.73" gradientUnits="userSpaceOnUse">
      <stop offset="0" stop-color="#2f5495"/>
      <stop offset="1" stop-color="#203462"/>
    </linearGradient>
    <linearGradient id="linear-gradient1" x1="92.79" y1="152.02" x2="189.42" y2="152.02" xlink:href="#linear-gradient"/>
    <linearGradient id="linear-gradient2" x1="112.85" y1="123.38" x2="197.91" y2="123.38" xlink:href="#linear-gradient"/>
    <linearGradient id="linear-gradient3" x1="93.06" y1="111.15" x2="171.56" y2="111.15" xlink:href="#linear-gradient"/>
  </defs>
  <path class="st3" d="M236.21,133.35c-.64-9.55-3.66-13.02-13.05-12.19-9.58.85-9.46-6.47-12.56-11.69-3.13-5.28.82-7.24,3.5-10,6.51-6.71,6.77-10.92.69-18.18-2.89-3.45-6-6.74-9.3-9.79-10.2-9.44-13.62-9.47-23.56.39-2.63,2.61-4.64,2.86-7.59,1.11-1.92-1.14-4-2.29-6.15-2.7-4.56-.88-5.6-3.58-5.27-7.75.3-3.79.55-7.67-2.18-10.97-6.2-7.54-33.4-6.38-39.03,1.73-.11.16-.05.44-.07.67-.14.77-.28,1.55-.42,2.32-1.75,3.82,1.39,9.16-1.59,11.63-3.8,3.16-9.06,4.88-13.98,6.25-2.8.79-4.16-2.94-6.08-4.68-7.12-6.48-11.41-6.66-18.77-.46-4.66,3.93-8.98,8.2-12.72,13.02-5.13,6.62-4.8,11.08,1.05,17.15,1.84,1.91,5.42,3.55,4.88,6.06-1.03,4.74-3.19,9.31-5.39,13.7-1.68,3.35-5.26,1.69-7.98,1.8-9.61.36-12.81,3.11-13.44,12.93-.36,5.6-.34,11.27.08,16.86.7,9.57,4.31,13.6,13.69,12.52,9.69-1.11,8.85,6.55,11.89,11.3,3.26,5.07-.68,7.21-3.48,10-6.21,6.19-6.53,10.78-1.08,17.73,3.62,4.61,7.76,8.73,12.24,12.52,7.73,6.55,12.71,6.97,19-.71,6.11-7.46,11-1.28,16.48-.2,5.48,1.08,4.54,5.1,4.5,8.93-.1,10.04,2.95,13.16,13.13,13.75,5.37.66,10.73.7,16.1,0,10.27-.57,13.19-3.62,13.29-13.66.03-2.44-1.19-5.85.85-7.1,4.17-2.56,8.85-4.52,13.56-5.88,3.36-.97,4.72,2.91,6.74,4.78,6.83,6.32,10.99,6.65,18.15.48,4.08-3.52,8.04-7.23,11.63-11.24,7.07-7.89,7.24-13.26-.86-20.13-7.62-6.47-.2-11.2.66-16.63.76-4.79,4.7-3.73,7.99-3.7,10.03.12,13.8-3.11,14.49-13.12.39-5.6.34-11.27-.03-16.87M122.16,65.93s0-.08-.01-.12c0,0,0,0,0,0,0,.04,0,.09,0,.13M227.09,149.51c-.21,3.47-1.53,4.72-4.98,4.52-4.96-.3-11.01-.99-13.73,3.62-3.94,6.65-7.96,13.71-8.45,21.73-.27,4.34,2.98,7.47,6.21,9.99,4.03,3.15,3.9,6,.16,9.16-1.02.86-1.82,2-2.75,2.98-8.54,8.94-8.58,8.99-18,1.51-3.7-2.93-7.51-3.83-11.9-1.8-2.45,1.13-4.88,2.47-7.46,3.13-9.3,2.39-13.69,8.06-12.42,17.74.48,3.68-1,5.48-4.72,5.53-2.47.03-4.95.27-7.42.28q-11.04.04-11.83-10.78c-.38-5.14-2.45-9.05-7.67-10.78-2.13-.7-4.41-1.28-6.26-2.47-8.96-5.77-16.51-4.47-22.88,4.05-1.67,2.23-3.49,2.47-5.59.34-1.57-1.6-3.49-2.86-5.1-4.42q-8.83-8.56-1.48-17.86c.55-.7,1.11-1.41,1.53-2.19,4.98-9.3-6.47-29.43-16.92-29.79q-9.12-.32-9.27-9.27c-.02-1.35.02-2.7.04-4.06q.17-10.45,10.29-10.87c1.12-.05,2.28.02,3.37-.24,9.86-2.36,16.99-24.98,10.24-32.44q-6.81-7.52.17-14.92c.77-.82,1.53-1.65,2.34-2.44,6.78-6.6,6.86-6.68,13.84-.08,4.67,4.42,9.61,5.51,15.34,2.31,1.57-.87,3.16-1.94,4.88-2.29,10.2-2.08,14.48-8.25,13.1-18.46-.48-3.55,1.07-4.93,4.54-4.77,2.02.09,4.04-.24,6.07-.26,12.35-.15,12.39-.14,13.52,11.63.2,2.09.69,3.97,1.86,5.68,5.31,7.74,24.33,11.34,31.8,6.04q5.9-6.91,12.43-.74c1.14,1.08,2.2,2.23,3.29,3.37,7.08,7.34,7.12,7.39.33,14.78-2.94,3.2-4.06,6.87-3.79,11.09,2.02,4.65,4.15,9.25,6.03,13.96,1.68,4.22,4.16,7.24,9.05,7.44,3.9.17,7.8.35,11.7.52,1,6.49.93,13,.52,19.55"/>
  <path class="st1" d="M178.96,130.78c3.43,16.52-2.23,30.25-16.03,40.1-12.87,9.18-29.73,9.25-43.24.68-10.37-6.58-10.53-7.8-2.23-16.69.14-.16.17-.42.25-.62.47-.39,1.09-.76.39-1.44-.14-.14-.36-.27-.54-.27-7.74.04-15.49.1-23.23.16-3.14,8.31-.46,16.78-.52,25.75,2.48-1.49,4.15-3.5,5.74-5.56,2.38-3.07,4.07-3.24,7.22-.13,26.27,25.97,69.52,15.19,80.41-20.06,3.76-12.14,2.9-24.16-3.38-35.79-4.88,4.07-6.07,7.86-4.83,13.87"/>
  <path class="st0" d="M189.3,86.96c-15.31,18.59-30.71,37.09-45.85,55.82-2.85,3.53-4.41,2.98-7.11.06-4.42-4.79-9.38-9.09-13.85-13.84-2.61-2.77-4.3-3.54-7.47-.32-3.31,3.37-2.54,5.22.42,8,7.04,6.63,14.09,13.29,20.63,20.4,3.79,4.12,5.73,4.07,9.34-.39,15.13-18.7,30.69-37.04,46.11-55.51,1.07-1.4,2.31-2.69,3.17-4.21,1.01-1.79,4.36-3.32,2.85-5.23-1.88-2.4-3.76-6.26-8.23-4.78"/>
  <path class="st2" d="M95.49,131.66c2.94.45,6.15,1.53,7.86-3.49,9.25-27.2,34.77-36.19,60.02-21.54,2.48,1.44,8.16-1.72,8.18-4.95-.91-.86-1.92-2.04-3.14-2.94-25.9-19.12-66.59-4.28-74.14,27.11-.44,1.83-3.12,5.16,1.21,5.81"/>
</svg>