<?xml version="1.0" encoding="UTF-8"?>
<svg id="Layer_1" data-name="Layer 1" xmlns="http://www.w3.org/2000/svg" xmlns:xlink="http://www.w3.org/1999/xlink" viewBox="0 0 283.46 283.46">
  <defs>
    <style>
      .cls-1 {
        fill: #fff;
      }

      .cls-2 {
        fill: url(#linear-gradient);
      }
    </style>
    <linearGradient id="linear-gradient" x1="29.15" y1="141.73" x2="254.31" y2="141.73" gradientUnits="userSpaceOnUse">
      <stop offset="0" stop-color="#2f5495"/>
      <stop offset="1" stop-color="#203462"/>
    </linearGradient>
  </defs>
  <circle class="cls-2" cx="141.73" cy="141.73" r="112.58"/>
  <g>
    <path class="cls-1" d="M141.73,42.53c-39.68,0-71.85,32.17-71.85,71.85,0,28.83,16.98,53.7,41.49,65.14,0-1.03.62-1.91,1.49-2.32-23.76-10.93-40.25-34.95-40.25-62.82,0-19.09,7.74-36.36,20.24-48.87,12.51-12.51,29.78-20.24,48.87-20.24s36.36,7.73,48.87,20.24c12.51,12.51,20.24,29.78,20.24,48.87,0,28.61-17.95,53.81-42.75,64.3l-50.31,18.71c.59.47.96,1.2.96,2.01,0,.2-.02.38-.06.57l50.45-18.76h.03c25.79-10.93,44.41-37.05,44.42-66.82,0-39.68-32.17-71.85-71.85-71.85M113.96,179.53h0s.15,0,.15,0h-.15Z"/>
    <path class="cls-1" d="M169.86,195.17l-53.15,19.77c.52.47.85,1.15.85,1.91,0,.25-.04.49-.1.72l53.5-19.9c-.68-.46-1.12-1.24-1.12-2.13,0-.13,0-.25.03-.38"/>
    <path class="cls-1" d="M162.27,212.81l-40.23,14.96.65,1.35c3.35,6.99,10.5,11.82,18.77,11.82,11.49,0,20.81-9.31,20.81-20.81h-2.73c0,5-2.02,9.51-5.29,12.78-3.28,3.27-7.79,5.29-12.78,5.29h0c-6.65,0-12.46-3.59-15.6-8.94l33.68-12.52v3.39h2.73v-7.32Z"/>
    <path class="cls-1" d="M113.96,176.95c-.39,0-.76.08-1.09.24-.88.41-1.48,1.29-1.49,2.32v.02c0,1.42,1.15,2.58,2.58,2.58s2.58-1.15,2.58-2.58h-2.58s.15,0,.15,0h2.42c0-1.43-1.15-2.58-2.58-2.58M113.96,179.53v-.15.15ZM114.11,179.53h-.15.15Z"/>
    <path class="cls-1" d="M116.17,196.81c-1.43,0-2.58,1.16-2.58,2.58s1.15,2.58,2.58,2.58c1.23,0,2.25-.86,2.51-2.01.04-.18.06-.37.06-.57h-2.42,2.42c0-.81-.38-1.54-.96-2.01-.44-.36-1-.57-1.61-.57M116.17,199.39v-.15.15Z"/>
    <path class="cls-1" d="M114.99,214.27c-1.42,0-2.58,1.15-2.58,2.58s1.15,2.58,2.58,2.58c1.17,0,2.16-.78,2.48-1.85.07-.23.1-.47.1-.72h-2.43,2.43c0-.76-.33-1.44-.85-1.91-.46-.41-1.06-.66-1.73-.66M114.99,216.85v-.15.15Z"/>
    <path class="cls-1" d="M172.41,192.97c-1.3,0-2.37.95-2.55,2.2-.02.12-.03.25-.03.38,0,.88.44,1.66,1.12,2.13.41.28.92.45,1.46.45,1.42,0,2.58-1.15,2.58-2.58h-2.42,2.42c0-1.43-1.15-2.58-2.58-2.58M172.41,195.55v-.15.15Z"/>
    <path class="cls-1" d="M174.55,93.15c-12.89,0-24.15,7.03-30.13,17.46-1.43,2.49-2.56,5.18-3.34,8.02.21-.05.43-.08.65-.08.78,0,1.48.35,1.96.9.72-2.64,1.77-5.15,3.1-7.47,5.52-9.62,15.88-16.09,27.76-16.09.91,0,1.81.04,2.7.11.27,1.82.4,3.69.4,5.59,0,10.63-4.31,20.24-11.27,27.2-6.05,6.05-14.1,10.09-23.07,11.05-.51-2.15-1.14-4.25-1.91-6.28-2.76-7.29-7.35-13.65-14.5-17.82-4.58-2.67-9.85-4.11-15.12-4.11-3.63,0-7.27.69-10.65,2.14l-1.18.51.43,1.21c5.7,15.91,20.92,27.29,38.79,27.29.66,0,1.31-.02,1.96-.05.9,4.67,1.28,9.59,1.28,14.52v3.97c.38-.23.83-.36,1.31-.36.52,0,1.01.15,1.42.42v-4.03c0-4.96-.37-9.95-1.27-14.74,20.54-2.33,36.5-19.77,36.5-40.93,0-2.41-.21-4.78-.6-7.08l-.18-1-1.01-.12c-1.33-.15-2.68-.23-4.04-.23M103.43,115.81c2.67-.97,5.51-1.44,8.36-1.44h.01c4.76,0,9.58,1.31,13.73,3.73,6.53,3.81,10.71,9.57,13.33,16.43.67,1.77,1.23,3.61,1.7,5.5-.45.02-.91.03-1.37.03h0c-16.22,0-30.1-10.05-35.75-24.25"/>
    <path class="cls-1" d="M143.74,160.87c-.48,0-.93.13-1.31.36-.76.45-1.27,1.27-1.27,2.22,0,1.43,1.16,2.58,2.58,2.58s2.58-1.15,2.58-2.58h-2.42,2.42c0-.9-.46-1.69-1.16-2.15-.41-.27-.89-.42-1.42-.42M143.74,163.45v-.15.15Z"/>
    <path class="cls-1" d="M141.73,118.55c-.23,0-.45.03-.65.08-1.11.29-1.93,1.29-1.93,2.49,0,1.42,1.15,2.58,2.58,2.58s2.58-1.15,2.58-2.58h-2.42,2.42c0-.64-.23-1.23-.62-1.68-.47-.55-1.17-.9-1.95-.9M141.73,121.13v-.15.15Z"/>
  </g>
</svg>