<?xml version="1.0" encoding="UTF-8"?>
<svg id="Layer_1" xmlns="http://www.w3.org/2000/svg" version="1.1" xmlns:xlink="http://www.w3.org/1999/xlink" viewBox="0 0 283.46 283.46">
  <!-- Generator: Adobe Illustrator 29.6.1, SVG Export Plug-In . SVG Version: 2.1.1 Build 9)  -->
  <defs>
    <style>
      .st0 {
        fill: #b2b1b1;
      }

      .st1 {
        fill: url(#Degradado_sin_nombre_2);
      }

      .st2 {
        fill: url(#Degradado_sin_nombre_21);
      }
    </style>
    <linearGradient id="Degradado_sin_nombre_2" data-name="Degradado sin nombre 2" x1="55.03" y1="147.48" x2="216.39" y2="147.48" gradientUnits="userSpaceOnUse">
      <stop offset="0" stop-color="#233160"/>
      <stop offset=".65" stop-color="#2b4783"/>
      <stop offset="1" stop-color="#2f5192"/>
    </linearGradient>
    <linearGradient id="Degradado_sin_nombre_21" data-name="Degradado sin nombre 2" x1="87.39" y1="147.45" x2="184.04" y2="147.45" xlink:href="#Degradado_sin_nombre_2"/>
  </defs>
  <path class="st1" d="M131.4,66.88c-45.3,2.89-77.94,39.25-76.31,84.64,1.65,46.34,45.22,82.69,90.96,75.9,39.81-5.91,67.68-35.81,70.18-75.88.98-15.74-2.59-30.66-10.72-44.54-3.59.85-6.99,1.48-10.28,2.5-3.67,1.13-4.17,2.99-2.69,6.48,2.35,5.58,5.11,11.1,6.5,16.93,6.99,29.26-7.73,59.84-34.69,72.89-27.88,13.49-60.04,6.3-79.41-17.76-18.4-22.84-19.23-55.16-2.04-78.63,17.8-24.3,48.85-33.48,76.46-22.52,3.71,1.47,7.28,3.33,10.78,4.94,4.55-2.59,3.73-7.38,5.21-11.16.94-2.4.12-3.57-2.07-4.72-11.61-6.1-23.92-9.24-36.76-9.24-1.7,0-3.4.06-5.11.17"/>
  <path class="st2" d="M96.09,119.72c-13.92,19.77-10.84,47.32,7.1,63.54,18.23,16.49,45.9,16.64,64.61.33,16.34-14.24,21.44-42.13,10.27-58.28-2.84,2.98-5.48,6.05-8.46,8.76-2.18,1.99-2.65,3.8-1.98,6.78,3.38,15.14-4.96,30.62-19.45,36.75-14.06,5.96-30.69,1.09-39.23-11.47-7.86-11.57-8.03-25.16-.46-36.68,7.44-11.31,20.76-16.63,34.43-13.94,1.46.29,3.57.05,4.62-.83,3.54-2.94,6.74-6.31,10.47-9.89-6.97-3.8-14.59-5.61-22.17-5.61-15.32,0-30.49,7.38-39.74,20.54"/>
  <path class="st0" d="M189.08,74.88c-3.54,3.37-5.48,7.2-6.39,11.93-.56,2.85-1.45,6.15-3.36,8.13-11.54,11.98-23.36,23.69-35.25,35.32-1.15,1.12-3.49,1.63-5.2,1.49-5.29-.43-10.12.28-14.12,4.03-5.44,5.1-6.53,13.43-2.66,19.89,3.85,6.43,11.57,9.21,18.84,6.79,7.25-2.42,11.6-9.37,10.27-17.47-.52-3.16.28-4.99,2.44-7.11,10.84-10.64,21.61-21.35,32.2-32.24,2.88-2.96,5.98-4.87,10.03-5.29,5.14-.53,9.15-2.89,12.66-6.74,4.67-5.13,9.76-9.87,14.67-14.79,1.55-1.55,3.06-3.12,5.24-5.33-7.81.95-14.47,1.77-21.55,2.62.92-7.27,1.75-13.83,2.58-20.4-.31-.16-.6-.32-.89-.49-6.48,6.57-12.81,13.3-19.49,19.66"/>
</svg>