<?xml version="1.0" encoding="UTF-8"?>
<svg id="Layer_1" xmlns="http://www.w3.org/2000/svg" version="1.1" xmlns:xlink="http://www.w3.org/1999/xlink" viewBox="0 0 283.46 283.46">
  <!-- Generator: Adobe Illustrator 29.6.1, SVG Export Plug-In . SVG Version: 2.1.1 Build 9)  -->
  <defs>
    <style>
      .st0 {
        fill: url(#linear-gradient);
        fill-rule: evenodd;
      }
    </style>
    <linearGradient id="linear-gradient" x1="90.43" y1="141.73" x2="193.04" y2="141.73" gradientUnits="userSpaceOnUse">
      <stop offset="0" stop-color="#2f5495"/>
      <stop offset="1" stop-color="#203462"/>
    </linearGradient>
  </defs>
  <path class="st0" d="M172.69,227.51v-82.71l-9.07-4.03.03-50.42-5.57-5.51v-23.18l-11.13-8.23v-15.49c-15.68-.01-19.91-.62-33.54,12.95-.45,4.39-.87,8.78-1.27,13.18,6.48-4.37,16.49-9.11,28.48-9.12,0,1.42-.42,1.99-.42,3.4-11.49-.27-21.77,4.26-28.3,8.38-.15,1.74-.31,3.48-.46,5.23,6.4-4.35,16.65-9.39,29.02-9.4,0,1.43-.4,2.04-.4,3.46-11.82-.27-22.35,4.48-28.84,8.54-.14,1.75-.29,3.5-.42,5.26,6.31-4.26,16.79-9.6,29.51-9.61,0,1.43-.39,2.09-.39,3.52-12.11-.27-22.89,4.68-29.32,8.64-.14,1.76-.27,3.52-.4,5.28,6.19-4.13,16.89-9.74,29.95-9.75,0,1.44-.37,2.15-.37,3.58-12.37-.26-23.38,4.85-29.76,8.68-.12,1.76-.25,3.52-.37,5.29,6.07-3.93,16.97-9.79,30.34-9.8,0,1.45-.35,2.2-.35,3.64-12.61-.25-23.82,4.99-30.17,8.64-.12,1.76-.23,3.52-.34,5.28,5.96-3.67,17.05-9.75,30.69-9.77,0,1.45-.32,2.25-.32,3.7-12.81-.25-24.21,5.08-30.53,8.51-.11,1.75-.22,3.5-.32,5.25,5.85-3.36,17.11-9.62,31.01-9.64,0,1.46-.3,2.31-.3,3.77-12.97-.24-24.53,5.13-30.85,8.32-.1,1.73-.2,3.46-.29,5.19,5.76-3,17.18-9.39,31.28-9.4,0,1.46-.28,2.36-.28,3.82-13.1-.23-24.78,5.12-31.13,8.06-.09,1.7-.18,3.41-.26,5.11,5.71-2.61,17.26-9.06,31.52-9.07,0,1.47-.26,2.41-.26,3.89-13.19-.23-24.98,5.06-31.39,7.71-.08,1.67-.16,3.34-.24,5.01,5.71-2.19,17.37-8.62,31.73-8.64,0,1.47-.24,2.47-.24,3.95-13.22-.21-25.08,4.94-31.61,7.32-.08,1.62-.15,3.25-.22,4.87,5.78-1.79,17.52-8.11,31.92-8.12,0,1.48-.22,2.52-.22,4.01-13.22-.2-25.13,4.75-31.82,6.85-.07,1.58-.13,3.15-.2,4.73,5.92-1.39,17.71-7.51,32.07-7.52,0,1.5-.2,2.58-.2,4.07-13.16-.19-25.09,4.52-31.98,6.35-.06,1.52-.12,3.04-.18,4.56,6.14-1.04,17.95-6.86,32.2-6.87,0,1.5-.19,2.63-.19,4.13-13.07-.17-24.98,4.23-32.12,5.81-.06,1.46-.11,2.93-.16,4.39,6.45-.74,18.24-6.15,32.31-6.16,0,1.51-.16,2.69-.16,4.19-12.95-.15-24.82,3.89-32.27,5.23l-.14,4.22c6.82-.48,18.58-5.42,32.4-5.43,0,1.51-.14,2.75-.14,4.26-12.77-.13-24.59,3.5-32.37,4.62l-.13,4.06c7.27-.29,18.96-4.66,32.48-4.67,0,1.52-.12,2.8-.12,4.32-12.58-.12-24.31,3.08-32.47,4l-.12,3.91c7.78-.14,19.38-3.9,32.55-3.9,0,1.52-.11,2.85-.11,4.37-12.35-.1-23.98,2.63-32.55,3.35l-.11,3.76c8.34-.04,19.83-3.12,32.6-3.12,0,1.53-.08,2.9-.08,4.43-12.1-.08-23.63,2.14-32.63,2.7l-.1,3.63c8.93.01,20.29-2.34,32.64-2.34,0,1.54-.06,2.96-.06,4.5-11.85-.06-23.24,1.63-32.7,2.03l-.1,3.5c9.57.04,20.79-1.56,32.68-1.56,0,1.54-.04,3.01-.04,4.55-11.55-.04-22.81,1.11-32.75,1.37l-.09,3.39c10.23.02,21.31-.78,32.72-.78,0,1.55-.02,3.06-.02,4.61-11.26-.02-22.37.56-32.81.69l-.09,3.28h32.75v2.89h-46.8v18.03h102.61v-18.03h-20.35Z"/>
</svg>