<?xml version="1.0" encoding="UTF-8"?>
<svg id="Layer_1" xmlns="http://www.w3.org/2000/svg" version="1.1" xmlns:xlink="http://www.w3.org/1999/xlink" viewBox="0 0 283.46 283.46">
  <!-- Generator: Adobe Illustrator 29.6.1, SVG Export Plug-In . SVG Version: 2.1.1 Build 9)  -->
  <defs>
    <style>
      .st0 {
        fill: url(#linear-gradient1);
      }

      .st1 {
        fill: url(#radial-gradient);
      }

      .st2 {
        fill: url(#radial-gradient1);
      }

      .st3 {
        fill: #ededed;
      }

      .st4 {
        fill: url(#linear-gradient);
      }
    </style>
    <linearGradient id="linear-gradient" x1="328.54" y1="-176.36" x2="396.41" y2="-204.61" gradientTransform="translate(-82.38 514.77) rotate(-22.4)" gradientUnits="userSpaceOnUse">
      <stop offset="0" stop-color="#2f5495"/>
      <stop offset="1" stop-color="#203462"/>
    </linearGradient>
    <linearGradient id="linear-gradient1" x1="2406.91" y1="690.24" x2="2368.76" y2="598.58" gradientTransform="translate(2567.09 514.77) rotate(-157.6) scale(1 -1)" xlink:href="#linear-gradient"/>
    <radialGradient id="radial-gradient" cx="147.04" cy="112.65" fx="147.04" fy="112.65" r="70.48" gradientUnits="userSpaceOnUse">
      <stop offset="0" stop-color="#2b4f91"/>
      <stop offset="1" stop-color="#203a6f"/>
    </radialGradient>
    <radialGradient id="radial-gradient1" cx="147.04" cy="112.65" fx="147.04" fy="112.65" r="56.37" gradientUnits="userSpaceOnUse">
      <stop offset="0" stop-color="#2f5495"/>
      <stop offset="1" stop-color="#203462"/>
    </radialGradient>
  </defs>
  <polygon class="st4" points="216.78 234.08 191.28 227.56 177.79 250.16 143.49 166.97 182.48 150.89 216.78 234.08"/>
  <polygon class="st0" points="77.31 234.08 102.81 227.56 116.3 250.16 150.6 166.97 111.6 150.89 77.31 234.08"/>
  <path class="st1" d="M214.83,119.24c1.32,2.04,1.96,4.32,1.96,6.57,0,4.07-2.06,8.05-5.81,10.33-3.64,2.2-5.81,6.13-5.81,10.31,0,.51.03,1.03.1,1.55.07.53.1,1.05.1,1.56,0,6.12-4.65,11.39-10.91,11.99-2.38.23-4.57,1.15-6.37,2.58-1.79,1.43-3.18,3.37-3.93,5.63-1.68,5.08-6.4,8.27-11.45,8.27-1.38,0-2.79-.24-4.17-.75-1.36-.5-2.77-.74-4.17-.74-3.21,0-6.35,1.28-8.67,3.67-2.37,2.45-5.52,3.67-8.66,3.67s-6.3-1.22-8.67-3.67c-2.31-2.39-5.46-3.67-8.67-3.67-1.4,0-2.81.24-4.17.74-1.38.51-2.79.75-4.17.75-5.04,0-9.76-3.19-11.45-8.27-.75-2.27-2.13-4.21-3.93-5.63-1.79-1.43-3.99-2.35-6.37-2.58-6.26-.6-10.91-5.87-10.91-11.99,0-.52.03-1.04.1-1.56.07-.52.1-1.04.1-1.55,0-4.18-2.17-8.11-5.81-10.31-3.75-2.27-5.81-6.25-5.81-10.33,0-2.26.63-4.54,1.96-6.57,1.3-2,1.95-4.29,1.95-6.58s-.65-4.58-1.95-6.58c-1.33-2.04-1.96-4.32-1.96-6.57,0-4.07,2.06-8.05,5.81-10.33,3.64-2.2,5.81-6.13,5.81-10.31,0-.51-.03-1.03-.1-1.55-.07-.53-.1-1.05-.1-1.56,0-6.12,4.65-11.39,10.91-11.98,2.38-.23,4.57-1.15,6.37-2.58,1.79-1.43,3.18-3.37,3.93-5.63,1.68-5.08,6.4-8.27,11.45-8.27,1.38,0,2.79.24,4.17.75,1.36.5,2.77.74,4.17.74,3.21,0,6.35-1.28,8.67-3.67,2.37-2.45,5.52-3.67,8.67-3.67s6.3,1.22,8.66,3.67c3.32,3.43,8.35,4.58,12.83,2.93,1.38-.51,2.79-.75,4.17-.75,5.04,0,9.76,3.19,11.45,8.27.75,2.27,2.13,4.21,3.93,5.63,1.79,1.43,3.99,2.35,6.37,2.58,6.26.6,10.91,5.87,10.91,11.98,0,.52-.03,1.04-.1,1.56-.07.52-.1,1.04-.1,1.55,0,4.18,2.17,8.11,5.81,10.31,3.75,2.27,5.81,6.25,5.81,10.33,0,2.26-.63,4.54-1.96,6.57-1.3,2-1.96,4.29-1.96,6.58s.65,4.58,1.96,6.58Z"/>
  <circle class="st2" cx="147.04" cy="112.65" r="56.37"/>
  <polygon class="st3" points="136.04 145.23 112.53 121.72 122.62 111.63 134.94 123.94 168.85 82.19 179.93 91.19 136.04 145.23"/>
</svg>