<?xml version="1.0" encoding="UTF-8"?>
<svg id="Layer_1" xmlns="http://www.w3.org/2000/svg" version="1.1" xmlns:xlink="http://www.w3.org/1999/xlink" viewBox="0 0 283.46 283.46">
  <!-- Generator: Adobe Illustrator 29.6.1, SVG Export Plug-In . SVG Version: 2.1.1 Build 9)  -->
  <defs>
    <style>
      .st0 {
        clip-path: url(#clippath-6);
      }

      .st1 {
        clip-path: url(#clippath-7);
      }

      .st2 {
        clip-path: url(#clippath-4);
      }

      .st3 {
        clip-path: url(#clippath-1);
      }

      .st4 {
        fill: #213974;
      }

      .st5 {
        clip-path: url(#clippath-5);
      }

      .st6 {
        clip-path: url(#clippath-8);
      }

      .st7 {
        clip-path: url(#clippath-3);
      }

      .st8 {
        clip-path: url(#clippath-2);
      }

      .st9 {
        clip-path: url(#clippath);
      }
    </style>
    <clipPath id="clippath">
      <path class="st4" d="M141.73,207.23c-2.16,0-4.29-.08-6.43-.19,2.13.21,4.3.32,6.49.32s4.52-.12,6.74-.34c-2.25.13-4.51.21-6.8.21"/>
    </clipPath>
    <clipPath id="clippath-1">
      <path class="st4" d="M141.73,207.23c-2.16,0-4.3-.08-6.43-.19,2.13.21,4.3.32,6.49.32s4.52-.12,6.74-.34c-2.25.13-4.51.21-6.8.21"/>
    </clipPath>
    <clipPath id="clippath-2">
      <path class="st4" d="M35.87,141.53c4.6,9.28,10.4,17.85,17.16,25.55-2.3-8.06-3.55-16.56-3.55-25.35s1.31-17.71,3.71-25.94c-6.84,7.75-12.69,16.4-17.33,25.75"/>
    </clipPath>
    <clipPath id="clippath-3">
      <path class="st4" d="M230.44,116c2.37,8.17,3.66,16.8,3.66,25.73s-1.23,17.15-3.49,25.14c6.69-7.64,12.43-16.15,16.99-25.34-4.6-9.27-10.39-17.84-17.16-25.53Z"/>
    </clipPath>
    <clipPath id="clippath-4">
      <path class="st4" d="M192.83,87.45c14.45,13.6,23.49,32.88,23.49,54.28s-8.69,39.95-22.66,53.49c7.61-3.73,14.76-8.25,21.33-13.46,6.52-11.88,10.23-25.52,10.23-40.03s-3.88-28.71-10.65-40.76c-6.69-5.26-13.99-9.8-21.74-13.52Z"/>
    </clipPath>
    <clipPath id="clippath-5">
      <path class="st4" d="M69.11,100.8c-6.82,12.09-10.73,26.05-10.73,40.93s3.74,28.29,10.32,40.22c6.59,5.19,13.74,9.68,21.35,13.38-14.04-13.55-22.78-32.55-22.78-53.6s9.08-40.8,23.61-54.41c-7.76,3.71-15.06,8.23-21.77,13.48"/>
    </clipPath>
    <clipPath id="clippath-6">
      <path class="st4" d="M85.06,141.73c0-31.33,25.4-56.73,56.73-56.73s56.74,25.4,56.74,56.73-25.4,56.74-56.74,56.74-56.73-25.4-56.73-56.74M76.16,141.73c0,34.05,25.94,62.05,59.14,65.31,2.13.12,4.27.19,6.43.19,2.29,0,4.55-.08,6.8-.21,33.08-3.37,58.89-31.32,58.89-65.29,0-36.24-29.38-65.63-65.63-65.63s-65.63,29.39-65.63,65.63"/>
    </clipPath>
    <clipPath id="clippath-7">
      <path class="st4" d="M102.84,141.73c0-21.51,17.44-38.95,38.95-38.95s38.96,17.44,38.96,38.95-17.44,38.95-38.96,38.95-38.95-17.44-38.95-38.95M93.95,141.73c0,26.42,21.42,47.85,47.84,47.85s47.85-21.42,47.85-47.85-21.42-47.84-47.85-47.84-47.84,21.42-47.84,47.84"/>
    </clipPath>
    <clipPath id="clippath-8">
      <path class="st4" d="M111.73,141.73c0,16.6,13.46,30.06,30.06,30.06s30.06-13.46,30.06-30.06c0-3.19-.51-6.26-1.43-9.15-2.12,2.12-5.04,3.44-8.24,3.52.49,1.8.78,3.68.78,5.63,0,11.69-9.47,21.17-21.17,21.17s-21.16-9.48-21.16-21.17,9.47-21.16,21.16-21.16c2.92,0,5.7.59,8.22,1.65.48-3.12,2.15-5.83,4.53-7.68-3.88-1.82-8.19-2.87-12.76-2.87-16.6,0-30.06,13.46-30.06,30.06"/>
    </clipPath>
  </defs>
  <g>
    <path class="st4" d="M141.73,207.23c-2.16,0-4.29-.08-6.43-.19,2.13.21,4.3.32,6.49.32s4.52-.12,6.74-.34c-2.25.13-4.51.21-6.8.21"/>
    <g class="st9">
      <rect class="st4" x="135.3" y="206.84" width="13.23" height=".7" transform="translate(-5.59 3.94) rotate(-1.56)"/>
    </g>
  </g>
  <path class="st4" d="M155.7,124.06c0-3.43,2.77-6.21,6.2-6.21s6.21,2.78,6.21,6.21-2.78,6.21-6.21,6.21-6.2-2.78-6.2-6.21"/>
  <g>
    <path class="st4" d="M141.73,207.23c-2.16,0-4.3-.08-6.43-.19,2.13.21,4.3.32,6.49.32s4.52-.12,6.74-.34c-2.25.13-4.51.21-6.8.21"/>
    <g class="st3">
      <rect class="st4" x="135.3" y="206.84" width="13.23" height=".7" transform="translate(-5.59 3.94) rotate(-1.56)"/>
    </g>
  </g>
  <g>
    <path class="st4" d="M35.87,141.53c4.6,9.28,10.4,17.85,17.16,25.55-2.3-8.06-3.55-16.56-3.55-25.35s1.31-17.71,3.71-25.94c-6.84,7.75-12.69,16.4-17.33,25.75"/>
    <g class="st8">
      <rect class="st4" x="18.78" y="132.44" width="51.51" height="17.98" transform="translate(-97.45 184.17) rotate(-89.27)"/>
    </g>
  </g>
  <g>
    <path class="st4" d="M230.44,116c2.37,8.17,3.66,16.8,3.66,25.73s-1.23,17.15-3.49,25.14c6.69-7.64,12.43-16.15,16.99-25.34-4.6-9.27-10.39-17.84-17.16-25.53Z"/>
    <g class="st7">
      <rect class="st4" x="213.48" y="132.54" width="51.09" height="17.8" transform="translate(94.57 378.65) rotate(-89.27)"/>
    </g>
  </g>
  <g>
    <path class="st4" d="M192.83,87.45c14.45,13.6,23.49,32.88,23.49,54.28s-8.69,39.95-22.66,53.49c7.61-3.73,14.76-8.25,21.33-13.46,6.52-11.88,10.23-25.52,10.23-40.03s-3.88-28.71-10.65-40.76c-6.69-5.26-13.99-9.8-21.74-13.52Z"/>
    <g class="st2">
      <rect class="st4" x="154.93" y="124.46" width="108.18" height="33.75" transform="translate(65.05 348.55) rotate(-89.27)"/>
    </g>
  </g>
  <g>
    <path class="st4" d="M69.11,100.8c-6.82,12.09-10.73,26.05-10.73,40.93s3.74,28.29,10.32,40.22c6.59,5.19,13.74,9.68,21.35,13.38-14.04-13.55-22.78-32.55-22.78-53.6s9.08-40.8,23.61-54.41c-7.76,3.71-15.06,8.23-21.77,13.48"/>
    <g class="st5">
      <rect class="st4" x="20.43" y="124.4" width="108.41" height="33.87" transform="translate(-67.63 214.17) rotate(-89.27)"/>
    </g>
  </g>
  <g>
    <path class="st4" d="M85.06,141.73c0-31.33,25.4-56.73,56.73-56.73s56.74,25.4,56.74,56.73-25.4,56.74-56.74,56.74-56.73-25.4-56.73-56.74M76.16,141.73c0,34.05,25.94,62.05,59.14,65.31,2.13.12,4.27.19,6.43.19,2.29,0,4.55-.08,6.8-.21,33.08-3.37,58.89-31.32,58.89-65.29,0-36.24-29.38-65.63-65.63-65.63s-65.63,29.39-65.63,65.63"/>
    <g class="st0">
      <rect class="st4" x="75.4" y="75.21" width="132.78" height="132.91" transform="translate(-1.66 281.66) rotate(-89.27)"/>
    </g>
  </g>
  <g>
    <path class="st4" d="M102.84,141.73c0-21.51,17.44-38.95,38.95-38.95s38.96,17.44,38.96,38.95-17.44,38.95-38.96,38.95-38.95-17.44-38.95-38.95M93.95,141.73c0,26.42,21.42,47.85,47.84,47.85s47.85-21.42,47.85-47.85-21.42-47.84-47.85-47.84-47.84,21.42-47.84,47.84"/>
    <g class="st1">
      <rect class="st4" x="92.99" y="92.92" width="97.61" height="97.62" transform="translate(-2.79 280.62) rotate(-88.84)"/>
    </g>
  </g>
  <g>
    <path class="st4" d="M111.73,141.73c0,16.6,13.46,30.06,30.06,30.06s30.06-13.46,30.06-30.06c0-3.19-.51-6.26-1.43-9.15-2.12,2.12-5.04,3.44-8.24,3.52.49,1.8.78,3.68.78,5.63,0,11.69-9.47,21.17-21.17,21.17s-21.16-9.48-21.16-21.17,9.47-21.16,21.16-21.16c2.92,0,5.7.59,8.22,1.65.48-3.12,2.15-5.83,4.53-7.68-3.88-1.82-8.19-2.87-12.76-2.87-16.6,0-30.06,13.46-30.06,30.06"/>
    <g class="st6">
      <rect class="st4" x="111.13" y="111.07" width="61.32" height="61.33" transform="translate(-2.79 280.62) rotate(-88.84)"/>
    </g>
  </g>
  <path class="st4" d="M155.7,124.06c0-3.43,2.78-6.21,6.21-6.21s6.21,2.78,6.21,6.21-2.78,6.21-6.21,6.21-6.21-2.78-6.21-6.21"/>
</svg>